<svg xmlns="http://www.w3.org/2000/svg" xmlns:xlink="http://www.w3.org/1999/xlink" width="500" zoomAndPan="magnify" viewBox="0 0 375 374.999991" height="500" preserveAspectRatio="xMidYMid meet" version="1.0"><defs><clipPath id="71c1fc8da8"><path d="M 160 148 L 230 148 L 230 217.402344 L 160 217.402344 Z M 160 148 " clip-rule="nonzero"/></clipPath><clipPath id="a340345cb7"><path d="M 194 148 L 230 148 L 230 217.402344 L 194 217.402344 Z M 194 148 " clip-rule="nonzero"/></clipPath><clipPath id="a0c73ddef5"><path d="M 159.089844 168 L 164 168 L 164 173 L 159.089844 173 Z M 159.089844 168 " clip-rule="nonzero"/></clipPath><clipPath id="d7847acc9c"><path d="M 159.089844 168 L 162 168 L 162 173 L 159.089844 173 Z M 159.089844 168 " clip-rule="nonzero"/></clipPath><clipPath id="f875f99ac9"><path d="M 159.089844 168 L 162 168 L 162 171 L 159.089844 171 Z M 159.089844 168 " clip-rule="nonzero"/></clipPath><clipPath id="09140309df"><path d="M 186 138.652344 L 191 138.652344 L 191 143 L 186 143 Z M 186 138.652344 " clip-rule="nonzero"/></clipPath><clipPath id="9a4595d570"><path d="M 186 138.652344 L 189 138.652344 L 189 143 L 186 143 Z M 186 138.652344 " clip-rule="nonzero"/></clipPath><clipPath id="6d2bc5323c"><path d="M 188 138.652344 L 189 138.652344 L 189 140 L 188 140 Z M 188 138.652344 " clip-rule="nonzero"/></clipPath><clipPath id="ebbdd86cbd"><path d="M 186 138.652344 L 189 138.652344 L 189 141 L 186 141 Z M 186 138.652344 " clip-rule="nonzero"/></clipPath><clipPath id="a3bd637069"><path d="M 188 138.652344 L 191 138.652344 L 191 143 L 188 143 Z M 188 138.652344 " clip-rule="nonzero"/></clipPath></defs><g clip-path="url(#71c1fc8da8)"><path fill="#1a527d" d="M 229.460938 182.863281 C 229.460938 201.929688 213.96875 217.386719 194.855469 217.386719 C 175.742188 217.386719 160.25 201.929688 160.25 182.863281 C 160.25 163.800781 175.742188 148.34375 194.855469 148.34375 C 213.96875 148.34375 229.460938 163.800781 229.460938 182.863281 " fill-opacity="1" fill-rule="nonzero"/></g><path fill="#80cc28" d="M 173.910156 156.304688 L 173.910156 158.082031 L 175.316406 158.832031 L 174.613281 159.582031 L 172.875 160.144531 L 172.875 163.703125 C 172.875 163.703125 172.03125 165.109375 172.21875 165.390625 C 172.40625 165.671875 173.25 166.796875 173.25 166.796875 C 173.25 166.796875 173.882812 167.359375 173.753906 167.921875 C 173.625 168.484375 174.164062 169.796875 173.753906 170.074219 C 173.34375 170.355469 173.753906 171.011719 173.753906 171.011719 L 175.785156 171.949219 C 175.785156 171.949219 175.785156 172.699219 176.257812 173.355469 C 176.726562 174.011719 177.195312 174.386719 177.476562 174.292969 C 177.757812 174.199219 178.136719 172.605469 178.136719 172.605469 C 178.136719 172.605469 177.476562 172.136719 177.195312 171.761719 C 176.914062 171.386719 176.164062 170.261719 176.257812 169.796875 C 176.351562 169.328125 177.476562 169.046875 177.476562 169.046875 C 177.476562 169.046875 177.851562 169.890625 178.136719 170.449219 C 178.417969 171.011719 178.980469 172.417969 179.074219 172.886719 C 179.167969 173.355469 178.886719 173.570312 179.074219 174.304688 C 179.261719 175.042969 178.644531 175.320312 179.09375 175.792969 C 179.542969 176.257812 180.296875 176.914062 180.671875 177.101562 C 181.046875 177.289062 183.019531 178.132812 183.675781 178.320312 C 184.332031 178.507812 185.179688 178.601562 185.554688 178.789062 C 185.765625 178.894531 186.03125 178.851562 186.355469 178.8125 C 186.617188 178.78125 186.914062 178.746094 187.246094 178.789062 C 187.996094 178.882812 188.84375 178.855469 188.84375 178.855469 C 188.84375 178.855469 189.925781 179.070312 190.042969 179.445312 C 190.15625 179.820312 190.15625 180.195312 190.4375 180.289062 C 190.5625 180.328125 190.78125 180.296875 191.011719 180.265625 C 191.296875 180.226562 191.597656 180.183594 191.753906 180.289062 C 192.035156 180.476562 192.882812 180.664062 193.070312 180.945312 C 193.257812 181.226562 193.351562 181.132812 193.726562 181.882812 C 194.101562 182.628906 194.667969 183.660156 194.667969 183.660156 C 194.667969 183.660156 195.230469 184.035156 195.511719 184.035156 C 195.792969 184.035156 196.355469 184.035156 196.355469 184.035156 L 196.355469 184.597656 C 196.355469 184.597656 196.828125 184.410156 197.203125 184.597656 C 197.410156 184.703125 197.734375 184.660156 198.03125 184.621094 C 198.265625 184.589844 198.484375 184.554688 198.609375 184.597656 C 198.894531 184.691406 199.550781 184.664062 199.550781 184.664062 L 200.394531 184.667969 C 200.394531 184.667969 199.925781 185.253906 200.394531 185.722656 C 200.867188 186.191406 200.867188 186.285156 200.867188 186.753906 C 200.867188 187.222656 201.429688 187.222656 200.867188 187.691406 C 200.613281 187.898438 200.625 187.867188 200.644531 187.832031 C 200.671875 187.789062 200.714844 187.746094 200.300781 188.15625 C 199.550781 188.90625 199.269531 189.09375 198.988281 189.84375 C 198.707031 190.59375 198.988281 191.839844 198.988281 191.839844 L 198.515625 193.78125 L 201.523438 197.714844 C 201.523438 197.714844 201.523438 198.589844 201.523438 199.089844 C 201.523438 199.589844 203.214844 202.023438 203.214844 202.023438 L 205.75 202.023438 L 205.277344 205.117188 L 204.527344 207.738281 C 204.527344 207.738281 204.152344 208.488281 203.777344 208.863281 C 203.402344 209.238281 203.496094 210.457031 203.496094 210.738281 C 203.496094 211.019531 202.648438 212.613281 202.273438 212.988281 C 201.898438 213.363281 200.582031 214.667969 200.300781 214.671875 C 200.019531 214.671875 198.988281 215.703125 198.988281 215.703125 L 199.457031 216.359375 C 199.457031 216.359375 202.554688 216.171875 203.117188 215.609375 C 203.683594 215.046875 205.75 214.015625 206.3125 213.738281 C 206.875 213.453125 209.414062 211.582031 209.414062 211.582031 C 209.414062 211.582031 211.949219 208.488281 211.949219 208.207031 C 211.949219 207.925781 212.605469 206.988281 212.605469 206.988281 C 212.605469 206.988281 213.355469 206.429688 213.546875 206.148438 C 213.734375 205.867188 214.765625 205.023438 214.765625 205.023438 C 214.765625 205.023438 215.613281 204.273438 215.707031 203.898438 C 215.800781 203.523438 215.894531 202.867188 216.550781 202.304688 C 217.207031 201.742188 217.679688 201.464844 217.960938 201.367188 C 218.242188 201.277344 218.992188 200.527344 219.085938 199.589844 C 219.179688 198.652344 219.554688 196.964844 219.554688 196.496094 C 219.554688 196.027344 220.214844 195.183594 220.496094 194.902344 C 220.777344 194.625 221.339844 194.15625 221.527344 193.6875 C 221.71875 193.21875 222.089844 192.894531 222.28125 191.839844 C 222.46875 190.78125 222.089844 189.75 222.28125 189.28125 C 222.46875 188.816406 223.40625 187.503906 221.71875 187.410156 C 221.183594 187.378906 220.714844 187.40625 220.300781 187.433594 C 219.402344 187.488281 218.757812 187.546875 218.242188 187.035156 C 217.488281 186.285156 216.832031 185.347656 216.832031 185.066406 C 216.832031 184.785156 217.207031 184.316406 216.457031 183.753906 C 215.707031 183.191406 216.175781 182.816406 214.953125 182.910156 C 213.734375 183.007812 212.699219 183.566406 212.417969 183.566406 C 212.136719 183.566406 211.855469 182.628906 211.855469 182.628906 L 210.539062 180.570312 C 210.539062 180.570312 209.789062 180.851562 209.507812 180.945312 C 209.222656 181.039062 208.753906 181.601562 208.285156 181.320312 C 207.816406 181.039062 207.535156 180.476562 207.535156 180.476562 C 207.535156 180.476562 206.59375 180.195312 206.40625 180.476562 C 206.21875 180.757812 205.84375 182.257812 205.84375 182.257812 L 205.65625 182.628906 C 205.65625 182.628906 205.46875 181.976562 205.46875 181.601562 C 205.46875 181.226562 205.65625 179.820312 205.65625 179.820312 L 204.058594 180.007812 C 204.058594 180.007812 202.742188 181.226562 202.367188 181.507812 C 201.992188 181.789062 202.085938 182.445312 201.429688 182.539062 C 200.773438 182.628906 199.082031 182.347656 198.609375 182.257812 C 198.140625 182.160156 196.921875 182.347656 196.921875 181.601562 C 196.921875 180.851562 196.167969 180.195312 196.921875 180.007812 C 197.15625 179.949219 197.441406 180 197.707031 180.054688 C 198.28125 180.167969 198.773438 180.285156 198.515625 179.257812 C 198.140625 177.757812 198.261719 177.289062 197.449219 177.289062 C 196.636719 177.289062 196.542969 177.757812 195.324219 177.851562 C 194.101562 177.945312 192.410156 178.226562 192.222656 177.664062 C 192.035156 177.101562 192.035156 175.886719 192.035156 175.886719 L 192.789062 175.792969 C 192.789062 175.792969 193.164062 175.511719 193.257812 175.136719 C 193.351562 174.761719 193.539062 173.355469 193.257812 173.167969 C 192.976562 172.980469 192.695312 172.605469 191.660156 172.886719 C 190.628906 173.167969 190.773438 173.730469 190.042969 174.480469 C 189.3125 175.230469 188.371094 175.792969 187.902344 175.886719 C 187.433594 175.976562 186.683594 174.667969 186.683594 174.386719 C 186.683594 174.105469 186.402344 173.167969 186.683594 172.511719 C 186.964844 171.855469 188.183594 170.636719 188.464844 170.636719 C 188.75 170.636719 190.816406 170.074219 190.816406 170.074219 C 190.816406 170.074219 192.695312 169.980469 192.976562 170.074219 C 193.257812 170.171875 194.195312 170.730469 194.570312 171.199219 C 194.949219 171.667969 195.136719 171.667969 195.886719 171.949219 C 196.636719 172.230469 198.140625 172.699219 198.328125 172.230469 C 198.515625 171.761719 198.515625 170.636719 198.515625 170.355469 C 198.515625 170.074219 198.140625 168.953125 197.859375 168.765625 C 197.578125 168.578125 196.945312 168.109375 197.449219 167.828125 C 197.953125 167.546875 198.515625 167.265625 199.082031 167.265625 C 199.644531 167.265625 199.738281 163.519531 199.738281 163.519531 C 199.738281 163.519531 199.644531 162.488281 199.738281 162.207031 C 199.832031 161.925781 200.867188 161.457031 200.867188 161.457031 C 200.867188 161.457031 202.085938 161.457031 202.367188 161.457031 C 202.648438 161.457031 203.777344 162.113281 204.058594 160.988281 C 204.339844 159.863281 204.058594 159.207031 204.339844 159.113281 C 204.621094 159.019531 205.277344 159.019531 205.277344 159.019531 C 205.277344 159.019531 203.308594 157.617188 202.933594 157.519531 C 202.554688 157.425781 201.804688 157.617188 201.804688 156.863281 C 201.804688 156.117188 201.898438 155.742188 202.367188 155.835938 C 202.835938 155.929688 204.527344 156.863281 204.527344 156.863281 L 205.183594 157.054688 C 205.183594 157.054688 205.75 157.144531 205.277344 156.398438 C 204.808594 155.648438 203.117188 154.523438 202.835938 154.429688 C 202.554688 154.335938 200.019531 153.492188 199.738281 153.492188 C 199.457031 153.492188 198.328125 153.679688 198.046875 153.492188 C 197.765625 153.304688 196.734375 152.835938 196.355469 152.554688 C 195.980469 152.273438 196.355469 151.714844 195.230469 151.523438 C 194.101562 151.335938 192.410156 151.152344 192.410156 151.152344 C 192.410156 151.152344 191.472656 150.960938 191.472656 151.617188 C 191.472656 152.273438 192.222656 153.398438 192.222656 153.398438 L 192.789062 154.335938 L 192.976562 154.914062 C 192.976562 154.914062 192.597656 154.648438 191.847656 154.914062 C 191.097656 155.179688 190.628906 154.429688 189.21875 154.335938 C 188.613281 154.296875 188.078125 154.308594 187.605469 154.320312 C 186.976562 154.332031 186.453125 154.347656 186.023438 154.242188 C 185.273438 154.054688 184.523438 153.960938 184.523438 153.210938 C 184.523438 152.460938 185.460938 152.835938 184.523438 152.460938 C 183.582031 152.085938 182.644531 152.179688 181.703125 152.367188 C 180.765625 152.554688 179.636719 153.023438 178.230469 153.679688 C 176.820312 154.335938 175.128906 155.367188 174.566406 155.460938 C 174.003906 155.554688 173.910156 156.304688 173.910156 156.304688 " fill-opacity="1" fill-rule="nonzero"/><path fill="#156292" d="M 185.890625 178.855469 C 185.847656 178.855469 185.804688 178.855469 185.765625 178.847656 C 185.804688 178.855469 185.847656 178.855469 185.890625 178.855469 C 186.027344 178.855469 186.183594 178.835938 186.355469 178.8125 C 186.355469 178.8125 186.359375 178.8125 186.359375 178.8125 C 186.1875 178.835938 186.03125 178.855469 185.890625 178.855469 M 185.648438 178.824219 C 185.617188 178.816406 185.585938 178.804688 185.554688 178.789062 C 185.453125 178.738281 185.3125 178.695312 185.15625 178.652344 C 185.3125 178.695312 185.453125 178.738281 185.554688 178.789062 C 185.585938 178.804688 185.617188 178.816406 185.648438 178.824219 " fill-opacity="1" fill-rule="nonzero"/><path fill="#9ad420" d="M 185.890625 178.855469 C 185.847656 178.855469 185.804688 178.855469 185.765625 178.847656 C 185.722656 178.84375 185.683594 178.835938 185.648438 178.824219 C 185.617188 178.816406 185.585938 178.804688 185.554688 178.789062 C 185.453125 178.738281 185.3125 178.695312 185.15625 178.652344 C 185.273438 178.382812 185.394531 178.109375 185.515625 177.839844 C 185.785156 178.175781 186.066406 178.5 186.359375 178.8125 C 186.359375 178.8125 186.355469 178.8125 186.355469 178.8125 C 186.183594 178.835938 186.027344 178.855469 185.890625 178.855469 M 173.914062 156.273438 C 173.933594 156.152344 174.039062 155.683594 174.394531 155.511719 L 174.5625 155.777344 C 174.34375 155.941406 174.128906 156.105469 173.914062 156.273438 M 175.082031 155.40625 L 175.019531 155.304688 C 175.210938 155.222656 175.433594 155.113281 175.679688 154.988281 C 175.480469 155.125 175.277344 155.261719 175.082031 155.40625 " fill-opacity="1" fill-rule="nonzero"/><path fill="#174b72" d="M 202.273438 212.988281 C 202.449219 212.8125 202.722656 212.375 202.96875 211.929688 C 202.726562 212.375 202.449219 212.8125 202.273438 212.988281 M 218.179688 186.972656 C 218.164062 186.957031 218.148438 186.9375 218.128906 186.921875 C 218.148438 186.9375 218.164062 186.957031 218.179688 186.972656 " fill-opacity="1" fill-rule="nonzero"/><path fill="#74ba24" d="M 199.457031 216.359375 L 198.988281 215.703125 C 198.988281 215.703125 200.019531 214.671875 200.300781 214.671875 C 200.582031 214.667969 201.898438 213.363281 202.273438 212.988281 C 202.449219 212.8125 202.726562 212.375 202.96875 211.929688 C 204.539062 210.957031 206.035156 209.875 207.535156 208.714844 C 212.554688 204.832031 215.617188 198.695312 217.082031 192.636719 C 217.253906 191.914062 217.410156 191.191406 217.550781 190.460938 L 222.226562 189.121094 C 221.773438 191.097656 221.183594 193.042969 220.464844 194.933594 C 220.171875 195.242188 219.554688 196.042969 219.554688 196.496094 C 219.554688 196.671875 219.503906 197.011719 219.433594 197.421875 C 218.746094 198.953125 217.96875 200.4375 217.113281 201.855469 C 216.945312 201.980469 216.757812 202.128906 216.550781 202.304688 C 215.894531 202.867188 215.800781 203.523438 215.707031 203.898438 C 215.613281 204.273438 214.765625 205.023438 214.765625 205.023438 C 214.765625 205.023438 213.734375 205.867188 213.546875 206.148438 C 213.355469 206.429688 212.605469 206.988281 212.605469 206.988281 C 212.605469 206.988281 211.949219 207.925781 211.949219 208.207031 C 211.949219 208.324219 211.511719 208.925781 211 209.59375 C 207.8125 212.652344 204.113281 215 200.011719 216.316406 C 199.675781 216.347656 199.457031 216.359375 199.457031 216.359375 M 217.675781 189.761719 C 217.84375 188.808594 217.984375 187.851562 218.097656 186.886719 C 218.109375 186.898438 218.121094 186.910156 218.128906 186.921875 C 218.148438 186.9375 218.164062 186.957031 218.179688 186.972656 C 218.199219 186.992188 218.21875 187.015625 218.242188 187.035156 C 218.59375 187.382812 219.003906 187.46875 219.519531 187.46875 C 219.757812 187.46875 220.015625 187.449219 220.300781 187.433594 C 220.585938 187.414062 220.898438 187.394531 221.238281 187.394531 C 221.390625 187.394531 221.550781 187.398438 221.71875 187.410156 C 222.128906 187.429688 222.386719 187.527344 222.535156 187.667969 C 222.488281 187.914062 222.4375 188.164062 222.382812 188.414062 L 217.675781 189.761719 " fill-opacity="1" fill-rule="nonzero"/><path fill="#156292" d="M 193.121094 216.109375 C 178.203125 216.109375 165.667969 205.503906 162.121094 191.15625 C 162.140625 191.167969 162.160156 191.179688 162.179688 191.1875 C 162.472656 191.34375 162.789062 191.417969 163.097656 191.417969 C 163.8125 191.417969 164.5 191.03125 164.855469 190.359375 C 165.007812 190.066406 165.082031 189.753906 165.082031 189.441406 C 165.082031 189.304688 165.066406 189.164062 165.039062 189.03125 L 170.625 186.945312 C 170.789062 187.390625 171.113281 187.78125 171.566406 188.015625 C 171.859375 188.171875 172.175781 188.242188 172.484375 188.242188 C 172.664062 188.242188 172.839844 188.21875 173.011719 188.171875 L 180.410156 194.703125 C 179.574219 203.253906 182.429688 211.089844 193.121094 216.109375 M 180.496094 193.929688 L 173.636719 187.878906 C 173.882812 187.703125 174.09375 187.472656 174.242188 187.1875 C 174.394531 186.894531 174.46875 186.582031 174.46875 186.269531 C 174.46875 185.558594 174.085938 184.871094 173.410156 184.515625 C 173.117188 184.363281 172.800781 184.289062 172.488281 184.289062 C 171.777344 184.289062 171.089844 184.675781 170.734375 185.347656 C 170.570312 185.65625 170.5 185.988281 170.507812 186.3125 L 164.808594 188.4375 C 164.628906 188.128906 164.363281 187.867188 164.023438 187.6875 C 163.726562 187.535156 163.414062 187.460938 163.101562 187.460938 C 162.5 187.460938 161.914062 187.738281 161.53125 188.226562 C 161.261719 186.484375 161.117188 184.691406 161.117188 182.863281 C 161.117188 185.636719 162.25 186.816406 164.113281 186.816406 C 167.703125 186.816406 173.992188 182.453125 180.113281 176.71875 C 180.328125 176.890625 180.527344 177.03125 180.671875 177.101562 C 181.046875 177.289062 183.019531 178.132812 183.675781 178.320312 C 184.15625 178.457031 184.730469 178.542969 185.15625 178.652344 C 182.9375 183.691406 181.109375 188.921875 180.496094 193.929688 " fill-opacity="1" fill-rule="nonzero"/><path fill="#156292" d="M 186.886719 174.90625 C 186.761719 174.679688 186.683594 174.476562 186.683594 174.386719 C 186.683594 174.105469 186.402344 173.167969 186.683594 172.511719 C 186.964844 171.855469 188.183594 170.636719 188.464844 170.636719 C 188.546875 170.636719 188.777344 170.589844 189.066406 170.523438 C 188.335938 171.949219 187.601562 173.414062 186.886719 174.90625 " fill-opacity="1" fill-rule="nonzero"/><path fill="#9ad420" d="M 185.515625 177.839844 C 184.511719 176.59375 183.707031 175.207031 183.183594 173.707031 C 185.839844 170.992188 188.371094 168.101562 190.515625 165.304688 L 191.308594 166.1875 C 190.585938 167.582031 189.828125 169.035156 189.066406 170.523438 C 188.777344 170.589844 188.546875 170.636719 188.464844 170.636719 C 188.183594 170.636719 186.964844 171.855469 186.683594 172.511719 C 186.402344 173.167969 186.683594 174.105469 186.683594 174.386719 C 186.683594 174.476562 186.761719 174.679688 186.886719 174.90625 C 186.417969 175.871094 185.960938 176.855469 185.515625 177.839844 M 191.621094 165.582031 L 190.910156 164.785156 C 192.835938 162.226562 194.425781 159.757812 195.488281 157.582031 C 194.542969 159.890625 193.167969 162.601562 191.621094 165.582031 " fill-opacity="1" fill-rule="nonzero"/><path fill="#156292" d="M 195.246094 149.980469 C 194.691406 149.75 193.992188 149.625 193.128906 149.625 C 194.007812 149.625 194.703125 149.746094 195.246094 149.980469 " fill-opacity="1" fill-rule="nonzero"/><path fill="#b0da19" d="M 185.15625 178.652344 C 184.730469 178.542969 184.15625 178.457031 183.675781 178.320312 C 183.019531 178.132812 181.046875 177.289062 180.671875 177.101562 C 180.527344 177.03125 180.328125 176.890625 180.113281 176.71875 C 181.148438 175.75 182.175781 174.742188 183.183594 173.707031 C 183.707031 175.207031 184.511719 176.59375 185.515625 177.839844 C 185.394531 178.109375 185.273438 178.382812 185.15625 178.652344 " fill-opacity="1" fill-rule="nonzero"/><path fill="#156292" d="M 196.917969 152.894531 C 196.871094 152.867188 196.824219 152.84375 196.78125 152.816406 C 196.832031 151.445312 196.378906 150.46875 195.246094 149.980469 C 196.449219 150.484375 196.960938 151.507812 196.917969 152.894531 " fill-opacity="1" fill-rule="nonzero"/><path fill="#9ad420" d="M 195.488281 157.582031 C 196.253906 155.703125 196.734375 154.089844 196.78125 152.816406 C 196.824219 152.84375 196.871094 152.867188 196.917969 152.894531 C 196.878906 154.175781 196.363281 155.777344 195.488281 157.582031 " fill-opacity="1" fill-rule="nonzero"/><path fill="#1171a4" d="M 164.113281 186.816406 C 162.25 186.816406 161.117188 185.636719 161.117188 182.863281 C 161.117188 171.992188 166.144531 162.339844 173.914062 156.273438 C 173.910156 156.292969 173.910156 156.304688 173.910156 156.304688 L 173.910156 158.082031 L 175.316406 158.832031 L 174.613281 159.582031 L 172.875 160.144531 L 172.875 163.703125 C 172.875 163.703125 172.191406 164.84375 172.191406 165.273438 C 172.191406 165.324219 172.199219 165.363281 172.21875 165.390625 C 172.40625 165.671875 173.25 166.796875 173.25 166.796875 C 173.25 166.796875 173.769531 167.261719 173.769531 167.765625 C 173.769531 167.816406 173.765625 167.871094 173.753906 167.921875 C 173.738281 167.984375 173.734375 168.054688 173.734375 168.132812 C 173.734375 168.5625 173.910156 169.1875 173.910156 169.625 C 173.910156 169.832031 173.871094 169.996094 173.753906 170.074219 C 173.617188 170.171875 173.570312 170.304688 173.570312 170.445312 C 173.570312 170.722656 173.753906 171.011719 173.753906 171.011719 L 175.785156 171.949219 C 175.785156 171.957031 175.789062 172.703125 176.257812 173.355469 C 176.679688 173.945312 177.101562 174.304688 177.386719 174.304688 C 177.417969 174.304688 177.449219 174.300781 177.476562 174.292969 C 177.757812 174.199219 178.136719 172.605469 178.136719 172.605469 C 178.136719 172.605469 177.476562 172.136719 177.195312 171.761719 C 176.929688 171.410156 176.25 170.390625 176.25 169.882812 C 176.25 169.851562 176.25 169.824219 176.257812 169.796875 C 176.351562 169.328125 177.476562 169.046875 177.476562 169.046875 C 177.476562 169.046875 177.851562 169.890625 178.136719 170.449219 C 178.417969 171.011719 178.980469 172.417969 179.074219 172.886719 C 179.089844 172.957031 179.09375 173.023438 179.09375 173.082031 C 179.09375 173.324219 179.007812 173.519531 179.007812 173.824219 C 179.007812 173.957031 179.023438 174.113281 179.074219 174.304688 C 179.101562 174.410156 179.113281 174.503906 179.109375 174.589844 C 179.109375 174.953125 178.925781 175.1875 178.925781 175.429688 C 178.925781 175.546875 178.96875 175.660156 179.09375 175.792969 C 179.371094 176.082031 179.765625 176.441406 180.113281 176.71875 C 173.992188 182.453125 167.703125 186.816406 164.113281 186.816406 " fill-opacity="1" fill-rule="nonzero"/><path fill="#1171a4" d="M 175.679688 154.988281 C 177.679688 153.636719 179.828125 152.511719 182.105469 151.644531 C 182.335938 151.902344 182.636719 152.097656 182.976562 152.207031 C 182.554688 152.21875 182.128906 152.285156 181.703125 152.367188 C 180.765625 152.554688 179.636719 153.023438 178.230469 153.679688 C 177.378906 154.074219 176.425781 154.609375 175.679688 154.988281 M 191.527344 154.96875 C 190.9375 154.96875 190.417969 154.417969 189.222656 154.335938 C 189.222656 154.335938 189.21875 154.335938 189.21875 154.335938 C 188.898438 154.316406 188.597656 154.308594 188.3125 154.308594 C 188.0625 154.308594 187.828125 154.3125 187.605469 154.320312 C 187.382812 154.324219 187.175781 154.328125 186.980469 154.328125 C 186.617188 154.328125 186.300781 154.3125 186.023438 154.242188 C 185.273438 154.054688 184.523438 153.960938 184.523438 153.210938 C 184.523438 152.710938 184.941406 152.710938 184.941406 152.65625 C 184.9375 152.628906 184.835938 152.585938 184.523438 152.460938 C 184.308594 152.375 184.09375 152.316406 183.882812 152.273438 C 184.753906 152.140625 185.4375 151.4375 185.542969 150.558594 C 187.972656 149.949219 190.507812 149.625 193.121094 149.625 C 193.121094 149.625 193.125 149.625 193.128906 149.625 C 193.992188 149.625 194.691406 149.75 195.246094 149.980469 C 196.378906 150.46875 196.832031 151.445312 196.78125 152.816406 C 196.609375 152.722656 196.457031 152.632812 196.355469 152.554688 C 195.980469 152.273438 196.355469 151.714844 195.230469 151.523438 C 194.101562 151.335938 192.410156 151.152344 192.410156 151.152344 C 192.410156 151.152344 192.289062 151.125 192.128906 151.125 C 191.851562 151.125 191.472656 151.203125 191.472656 151.617188 C 191.472656 151.621094 191.472656 151.621094 191.472656 151.621094 C 191.472656 151.625 191.472656 151.625 191.472656 151.625 C 191.472656 151.628906 191.472656 151.628906 191.472656 151.628906 C 191.472656 151.628906 191.472656 151.632812 191.472656 151.632812 C 191.472656 151.632812 191.472656 151.632812 191.472656 151.636719 C 191.472656 151.636719 191.472656 151.636719 191.472656 151.640625 C 191.472656 151.640625 191.472656 151.644531 191.472656 151.644531 C 191.472656 151.648438 191.472656 151.648438 191.472656 151.648438 C 191.472656 151.652344 191.472656 151.652344 191.472656 151.652344 C 191.472656 151.652344 191.472656 151.65625 191.472656 151.65625 C 191.472656 151.65625 191.472656 151.65625 191.472656 151.660156 C 191.480469 151.824219 191.53125 152.015625 191.605469 152.210938 C 191.820312 152.792969 192.222656 153.398438 192.222656 153.398438 L 192.789062 154.335938 L 192.976562 154.914062 C 192.976562 154.914062 192.808594 154.796875 192.472656 154.796875 C 192.308594 154.796875 192.097656 154.824219 191.847656 154.914062 C 191.738281 154.953125 191.628906 154.96875 191.527344 154.96875 " fill-opacity="1" fill-rule="nonzero"/><path fill="#b0da19" d="M 183.183594 173.707031 C 183.066406 173.371094 182.964844 173.027344 182.875 172.679688 C 181.960938 169.023438 182.554688 165.539062 184.015625 162.355469 L 185.035156 161.675781 C 185.394531 162.0625 185.910156 162.304688 186.484375 162.304688 C 186.875 162.304688 187.242188 162.191406 187.550781 161.992188 L 190.515625 165.304688 C 188.371094 168.101562 185.839844 170.992188 183.183594 173.707031 M 190.910156 164.785156 L 188.027344 161.570312 C 188.300781 161.230469 188.464844 160.796875 188.464844 160.328125 C 188.464844 159.234375 187.578125 158.351562 186.484375 158.351562 C 186.445312 158.351562 186.410156 158.351562 186.371094 158.355469 C 187.082031 157.371094 187.855469 156.429688 188.671875 155.53125 C 189.027344 155.144531 189.390625 154.773438 189.765625 154.410156 C 189.601562 154.375 189.421875 154.351562 189.222656 154.335938 C 190.417969 154.417969 190.9375 154.96875 191.527344 154.96875 C 191.628906 154.96875 191.738281 154.953125 191.847656 154.914062 C 192.097656 154.824219 192.308594 154.796875 192.472656 154.796875 C 192.808594 154.796875 192.976562 154.914062 192.976562 154.914062 L 192.789062 154.335938 L 192.222656 153.398438 C 192.222656 153.398438 191.820312 152.792969 191.605469 152.210938 C 191.652344 152.34375 191.710938 152.480469 191.773438 152.605469 C 192.300781 152.15625 192.832031 151.714844 193.363281 151.261719 C 192.816406 151.195312 192.410156 151.152344 192.410156 151.152344 C 192.410156 151.152344 192.289062 151.125 192.128906 151.125 C 191.851562 151.125 191.472656 151.203125 191.472656 151.617188 C 191.472656 151.203125 191.851562 151.125 192.128906 151.125 C 192.289062 151.125 192.410156 151.152344 192.410156 151.152344 C 192.410156 151.152344 194.101562 151.335938 195.230469 151.523438 C 196.355469 151.714844 195.980469 152.273438 196.355469 152.554688 C 196.457031 152.632812 196.609375 152.722656 196.78125 152.816406 C 196.734375 154.089844 196.253906 155.703125 195.488281 157.582031 C 194.425781 159.757812 192.835938 162.226562 190.910156 164.785156 M 184.578125 161.214844 C 184.601562 161.167969 184.628906 161.125 184.652344 161.082031 C 184.660156 161.101562 184.667969 161.125 184.679688 161.148438 L 184.578125 161.214844 M 191.472656 151.660156 C 191.472656 151.65625 191.472656 151.65625 191.472656 151.65625 C 191.472656 151.65625 191.472656 151.65625 191.472656 151.660156 M 191.472656 151.65625 C 191.472656 151.65625 191.472656 151.652344 191.472656 151.652344 C 191.472656 151.652344 191.472656 151.65625 191.472656 151.65625 M 191.472656 151.652344 C 191.472656 151.652344 191.472656 151.652344 191.472656 151.648438 C 191.472656 151.652344 191.472656 151.652344 191.472656 151.652344 M 191.472656 151.648438 C 191.472656 151.648438 191.472656 151.648438 191.472656 151.644531 C 191.472656 151.648438 191.472656 151.648438 191.472656 151.648438 M 191.472656 151.644531 L 191.472656 151.644531 M 191.472656 151.640625 L 191.472656 151.640625 M 191.472656 151.640625 C 191.472656 151.636719 191.472656 151.636719 191.472656 151.636719 C 191.472656 151.636719 191.472656 151.636719 191.472656 151.640625 M 191.472656 151.636719 C 191.472656 151.632812 191.472656 151.632812 191.472656 151.632812 C 191.472656 151.632812 191.472656 151.632812 191.472656 151.636719 M 191.472656 151.632812 C 191.472656 151.632812 191.472656 151.628906 191.472656 151.628906 C 191.472656 151.628906 191.472656 151.632812 191.472656 151.632812 M 191.472656 151.628906 C 191.472656 151.628906 191.472656 151.628906 191.472656 151.625 C 191.472656 151.628906 191.472656 151.628906 191.472656 151.628906 M 191.472656 151.625 C 191.472656 151.625 191.472656 151.625 191.472656 151.621094 C 191.472656 151.625 191.472656 151.625 191.472656 151.625 M 191.472656 151.621094 C 191.472656 151.621094 191.472656 151.621094 191.472656 151.617188 C 191.472656 151.621094 191.472656 151.621094 191.472656 151.621094 " fill-opacity="1" fill-rule="nonzero"/><path fill="#0e7eb5" d="M 191.605469 152.210938 C 191.53125 152.015625 191.480469 151.824219 191.472656 151.660156 C 191.480469 151.824219 191.53125 152.015625 191.605469 152.210938 M 191.472656 151.65625 L 191.472656 151.65625 M 191.472656 151.652344 L 191.472656 151.652344 M 191.472656 151.648438 L 191.472656 151.648438 M 191.472656 151.644531 L 191.472656 151.644531 M 191.472656 151.644531 C 191.472656 151.644531 191.472656 151.640625 191.472656 151.640625 C 191.472656 151.640625 191.472656 151.644531 191.472656 151.644531 M 191.472656 151.636719 L 191.472656 151.636719 M 191.472656 151.628906 L 191.472656 151.628906 M 191.472656 151.625 L 191.472656 151.625 M 191.472656 151.621094 L 191.472656 151.621094 " fill-opacity="1" fill-rule="nonzero"/><path fill="#c2e013" d="M 191.773438 152.605469 C 191.710938 152.480469 191.652344 152.34375 191.605469 152.210938 C 191.53125 152.015625 191.480469 151.824219 191.472656 151.660156 C 191.472656 151.65625 191.472656 151.65625 191.472656 151.65625 C 191.472656 151.65625 191.472656 151.652344 191.472656 151.652344 C 191.472656 151.652344 191.472656 151.652344 191.472656 151.648438 C 191.472656 151.648438 191.472656 151.648438 191.472656 151.644531 C 191.472656 151.644531 191.472656 151.640625 191.472656 151.640625 C 191.472656 151.636719 191.472656 151.636719 191.472656 151.636719 C 191.472656 151.632812 191.472656 151.632812 191.472656 151.632812 C 191.472656 151.632812 191.472656 151.628906 191.472656 151.628906 C 191.472656 151.628906 191.472656 151.628906 191.472656 151.625 C 191.472656 151.625 191.472656 151.625 191.472656 151.621094 C 191.472656 151.621094 191.472656 151.621094 191.472656 151.617188 C 191.472656 151.203125 191.851562 151.125 192.128906 151.125 C 192.289062 151.125 192.410156 151.152344 192.410156 151.152344 C 192.410156 151.152344 192.816406 151.195312 193.363281 151.261719 C 192.832031 151.714844 192.300781 152.15625 191.773438 152.605469 " fill-opacity="1" fill-rule="nonzero"/><path fill="#c2e013" d="M 180.113281 176.71875 C 179.765625 176.441406 179.371094 176.082031 179.09375 175.792969 C 178.96875 175.660156 178.925781 175.546875 178.925781 175.429688 C 178.925781 175.1875 179.109375 174.953125 179.109375 174.589844 C 179.113281 174.503906 179.101562 174.410156 179.074219 174.304688 C 179.023438 174.113281 179.007812 173.957031 179.007812 173.824219 C 179.007812 173.519531 179.09375 173.324219 179.09375 173.082031 C 179.09375 173.023438 179.089844 172.957031 179.074219 172.886719 C 178.980469 172.417969 178.417969 171.011719 178.136719 170.449219 C 177.851562 169.890625 177.476562 169.046875 177.476562 169.046875 C 177.476562 169.046875 176.351562 169.328125 176.257812 169.796875 C 176.25 169.824219 176.25 169.851562 176.25 169.882812 C 176.25 170.390625 176.929688 171.410156 177.195312 171.761719 C 177.476562 172.136719 178.136719 172.605469 178.136719 172.605469 C 178.136719 172.605469 177.757812 174.199219 177.476562 174.292969 C 177.449219 174.300781 177.417969 174.304688 177.386719 174.304688 C 177.101562 174.304688 176.679688 173.945312 176.257812 173.355469 C 175.789062 172.703125 175.785156 171.957031 175.785156 171.949219 L 173.753906 171.011719 C 173.753906 171.011719 173.570312 170.722656 173.570312 170.445312 C 173.570312 170.304688 173.617188 170.171875 173.753906 170.074219 C 173.871094 169.996094 173.910156 169.832031 173.910156 169.625 C 173.910156 169.1875 173.734375 168.5625 173.734375 168.132812 C 173.734375 168.054688 173.738281 167.984375 173.753906 167.921875 C 173.765625 167.871094 173.769531 167.816406 173.769531 167.765625 C 173.769531 167.261719 173.25 166.796875 173.25 166.796875 C 173.25 166.796875 172.40625 165.671875 172.21875 165.390625 C 172.199219 165.363281 172.191406 165.324219 172.191406 165.273438 C 172.191406 164.84375 172.875 163.703125 172.875 163.703125 L 172.875 160.144531 L 174.613281 159.582031 L 175.316406 158.832031 L 173.910156 158.082031 L 173.910156 156.304688 C 173.910156 156.304688 173.910156 156.292969 173.914062 156.273438 C 174.128906 156.105469 174.34375 155.941406 174.5625 155.777344 L 179.273438 163.269531 C 179.097656 163.566406 178.996094 163.914062 178.996094 164.28125 C 178.996094 165.371094 179.882812 166.257812 180.976562 166.257812 C 182.074219 166.257812 182.960938 165.371094 182.960938 164.28125 C 182.960938 163.902344 182.855469 163.550781 182.667969 163.25 L 184.015625 162.355469 C 182.554688 165.539062 181.960938 169.023438 182.875 172.679688 C 182.964844 173.027344 183.066406 173.371094 183.183594 173.707031 C 182.175781 174.742188 181.148438 175.75 180.113281 176.71875 M 173.21875 160.035156 L 172.875 160.144531 L 172.875 163.339844 C 173.011719 163.113281 173.140625 162.886719 173.265625 162.652344 C 173.34375 162.40625 173.414062 162.15625 173.476562 161.902344 C 173.480469 161.625 173.476562 161.347656 173.464844 161.066406 C 173.390625 160.722656 173.308594 160.375 173.21875 160.035156 M 182.25 162.765625 C 181.90625 162.476562 181.460938 162.304688 180.976562 162.304688 C 180.496094 162.304688 180.050781 162.476562 179.707031 162.765625 L 175.082031 155.40625 C 175.277344 155.261719 175.480469 155.125 175.679688 154.988281 C 176.425781 154.609375 177.378906 154.074219 178.230469 153.679688 C 179.636719 153.023438 180.765625 152.554688 181.703125 152.367188 C 182.128906 152.285156 182.554688 152.21875 182.976562 152.207031 C 183.167969 152.265625 183.367188 152.296875 183.574219 152.296875 C 183.679688 152.296875 183.78125 152.289062 183.882812 152.273438 C 184.09375 152.316406 184.308594 152.375 184.523438 152.460938 C 184.835938 152.585938 184.9375 152.628906 184.941406 152.65625 C 184.941406 152.710938 184.523438 152.710938 184.523438 153.210938 C 184.523438 153.960938 185.273438 154.054688 186.023438 154.242188 C 186.300781 154.3125 186.617188 154.328125 186.980469 154.328125 C 187.175781 154.328125 187.382812 154.324219 187.605469 154.320312 C 187.828125 154.3125 188.0625 154.308594 188.3125 154.308594 C 188.597656 154.308594 188.898438 154.316406 189.21875 154.335938 C 189.21875 154.335938 189.222656 154.335938 189.222656 154.335938 C 189.421875 154.351562 189.601562 154.375 189.765625 154.410156 C 189.390625 154.773438 189.027344 155.144531 188.671875 155.53125 C 187.855469 156.429688 187.082031 157.371094 186.371094 158.355469 C 185.328125 158.410156 184.503906 159.273438 184.503906 160.328125 C 184.503906 160.59375 184.554688 160.847656 184.652344 161.082031 C 184.628906 161.125 184.601562 161.167969 184.578125 161.214844 L 182.25 162.765625 " fill-opacity="1" fill-rule="nonzero"/><path fill="#b9d512" d="M 172.875 163.339844 L 172.875 160.144531 L 173.21875 160.035156 C 173.308594 160.375 173.390625 160.722656 173.464844 161.066406 C 173.476562 161.347656 173.480469 161.625 173.476562 161.902344 C 173.414062 162.15625 173.34375 162.40625 173.265625 162.652344 C 173.140625 162.886719 173.011719 163.113281 172.875 163.339844 " fill-opacity="1" fill-rule="nonzero"/><g clip-path="url(#a340345cb7)"><path fill="#174b72" d="M 194.855469 217.386719 C 196.632812 217.210938 198.355469 216.847656 200.011719 216.316406 C 200.929688 216.234375 202.707031 216.023438 203.117188 215.609375 C 203.683594 215.046875 205.75 214.015625 206.3125 213.738281 C 206.875 213.453125 209.414062 211.582031 209.414062 211.582031 C 209.414062 211.582031 210.277344 210.523438 211 209.59375 C 213.328125 207.351562 215.386719 204.730469 217.113281 201.855469 C 217.484375 201.585938 217.765625 201.433594 217.960938 201.367188 C 218.242188 201.277344 218.992188 200.527344 219.085938 199.589844 C 219.144531 199 219.316406 198.113281 219.433594 197.421875 C 219.804688 196.605469 220.148438 195.773438 220.464844 194.933594 C 220.476562 194.921875 220.488281 194.914062 220.496094 194.902344 C 220.777344 194.625 221.339844 194.15625 221.527344 193.6875 C 221.71875 193.21875 222.089844 192.894531 222.28125 191.839844 C 222.320312 191.617188 222.335938 191.394531 222.335938 191.179688 C 222.335938 190.585938 222.226562 190.042969 222.226562 189.648438 C 222.226562 189.503906 222.242188 189.382812 222.28125 189.28125 C 222.304688 189.226562 222.335938 189.15625 222.375 189.078125 L 224.628906 188.429688 C 224.90625 189.195312 225.636719 189.738281 226.496094 189.738281 C 227.589844 189.738281 228.476562 188.851562 228.476562 187.761719 C 228.476562 186.671875 227.589844 185.785156 226.496094 185.785156 C 225.726562 185.785156 225.058594 186.222656 224.730469 186.859375 L 222.921875 185.328125 C 225.058594 169.757812 218.523438 153.480469 198.667969 149.027344 C 198.695312 148.949219 198.71875 148.863281 198.734375 148.777344 L 199.710938 148.683594 C 207.148438 149.722656 213.828125 153.125 218.964844 158.101562 C 218.460938 158.460938 218.132812 159.046875 218.132812 159.710938 C 218.132812 160.800781 219.019531 161.6875 220.113281 161.6875 C 220.71875 161.6875 221.261719 161.414062 221.625 160.988281 C 226.054688 166.375 228.886719 173.125 229.382812 180.511719 C 228.289062 180.515625 227.40625 181.402344 227.40625 182.492188 C 227.40625 183.582031 228.292969 184.46875 229.386719 184.46875 C 229.398438 184.46875 229.414062 184.46875 229.425781 184.46875 C 228.585938 202.789062 213.429688 217.386719 194.855469 217.386719 M 222.683594 188.328125 C 222.699219 188.25 222.710938 188.171875 222.710938 188.097656 C 222.710938 187.933594 222.660156 187.785156 222.535156 187.667969 C 222.636719 187.136719 222.730469 186.601562 222.8125 186.070312 L 224.527344 187.523438 C 224.519531 187.601562 224.511719 187.679688 224.511719 187.761719 C 224.511719 187.777344 224.515625 187.789062 224.515625 187.804688 L 222.683594 188.328125 " fill-opacity="1" fill-rule="nonzero"/></g><path fill="#6aaa21" d="M 200.011719 216.316406 C 204.113281 215 207.8125 212.652344 211 209.59375 C 210.277344 210.523438 209.414062 211.582031 209.414062 211.582031 C 209.414062 211.582031 206.875 213.453125 206.3125 213.738281 C 205.75 214.015625 203.683594 215.046875 203.117188 215.609375 C 202.707031 216.023438 200.929688 216.234375 200.011719 216.316406 " fill-opacity="1" fill-rule="nonzero"/><path fill="#6aaa21" d="M 217.113281 201.855469 C 217.96875 200.4375 218.746094 198.953125 219.433594 197.421875 C 219.316406 198.113281 219.144531 199 219.085938 199.589844 C 218.992188 200.527344 218.242188 201.277344 217.960938 201.367188 C 217.765625 201.433594 217.484375 201.585938 217.113281 201.855469 " fill-opacity="1" fill-rule="nonzero"/><path fill="#6aaa21" d="M 220.464844 194.933594 C 221.183594 193.042969 221.773438 191.097656 222.226562 189.121094 L 222.375 189.078125 C 222.335938 189.15625 222.304688 189.226562 222.28125 189.28125 C 222.242188 189.382812 222.226562 189.503906 222.226562 189.648438 C 222.226562 190.042969 222.335938 190.585938 222.335938 191.179688 C 222.335938 191.394531 222.320312 191.617188 222.28125 191.839844 C 222.089844 192.894531 221.71875 193.21875 221.527344 193.6875 C 221.339844 194.15625 220.777344 194.625 220.496094 194.902344 C 220.488281 194.914062 220.476562 194.921875 220.464844 194.933594 M 222.382812 188.414062 C 222.4375 188.164062 222.488281 187.914062 222.535156 187.667969 C 222.660156 187.785156 222.710938 187.933594 222.710938 188.097656 C 222.710938 188.171875 222.699219 188.25 222.683594 188.328125 L 222.382812 188.414062 " fill-opacity="1" fill-rule="nonzero"/><path fill="#7dd5f7" d="M 229.773438 182.929688 L 229.148438 182.800781 L 231.050781 173.730469 L 231.050781 158.617188 L 219.753906 159.515625 L 217.859375 146.902344 L 196.664062 148.980469 L 188.796875 141.144531 L 183.371094 150.644531 L 165.066406 155.105469 L 161.429688 171.671875 L 160.808594 171.535156 L 164.527344 154.582031 L 182.953125 150.09375 L 188.65625 140.105469 L 196.902344 148.320312 L 218.402344 146.207031 L 220.296875 158.835938 L 231.6875 157.929688 L 231.679688 173.828125 L 229.773438 182.929688 " fill-opacity="1" fill-rule="nonzero"/><path fill="#7dd5f7" d="M 166.796875 154.398438 C 166.796875 155.488281 165.910156 156.375 164.816406 156.375 C 163.722656 156.375 162.835938 155.488281 162.835938 154.398438 C 162.835938 153.304688 163.722656 152.421875 164.816406 152.421875 C 165.910156 152.421875 166.796875 153.304688 166.796875 154.398438 " fill-opacity="1" fill-rule="nonzero"/><path fill="#98def9" d="M 164.71875 156.300781 C 163.703125 156.300781 162.886719 155.449219 162.886719 154.398438 C 162.886719 154.554688 162.949219 154.625 163.054688 154.625 C 163.476562 154.625 164.546875 153.574219 164.851562 152.949219 C 164.507812 153.789062 163.160156 155.566406 164.71875 156.300781 M 162.886719 154.398438 C 162.886719 153.347656 163.703125 152.492188 164.71875 152.492188 C 163.703125 152.492188 162.886719 153.347656 162.886719 154.398438 M 164.839844 152.515625 C 164.808594 152.5 164.769531 152.492188 164.71875 152.492188 C 164.769531 152.492188 164.808594 152.5 164.839844 152.515625 " fill-opacity="1" fill-rule="nonzero"/><path fill="#98def9" d="M 164.851562 152.949219 C 164.945312 152.726562 164.964844 152.570312 164.839844 152.515625 C 164.972656 152.570312 164.957031 152.734375 164.851562 152.949219 " fill-opacity="1" fill-rule="nonzero"/><path fill="#afe5fa" d="M 163.054688 154.625 C 162.949219 154.625 162.886719 154.554688 162.886719 154.398438 C 162.886719 153.347656 163.703125 152.492188 164.71875 152.492188 C 164.769531 152.492188 164.808594 152.5 164.839844 152.515625 C 164.964844 152.570312 164.945312 152.726562 164.851562 152.949219 C 164.546875 153.574219 163.476562 154.625 163.054688 154.625 " fill-opacity="1" fill-rule="nonzero"/><path fill="#72c3e2" d="M 164.816406 156.375 C 166.582031 156.203125 167.359375 152.769531 164.816406 152.421875 C 165.910156 152.421875 166.796875 153.304688 166.796875 154.398438 C 166.796875 155.488281 165.910156 156.375 164.816406 156.375 " fill-opacity="1" fill-rule="nonzero"/><g clip-path="url(#a0c73ddef5)"><path fill="#7dd5f7" d="M 163.101562 170.195312 C 163.101562 171.289062 162.214844 172.171875 161.117188 172.171875 C 160.023438 172.171875 159.136719 171.289062 159.136719 170.195312 C 159.136719 169.105469 160.023438 168.21875 161.117188 168.21875 C 162.214844 168.21875 163.101562 169.105469 163.101562 170.195312 " fill-opacity="1" fill-rule="nonzero"/></g><g clip-path="url(#d7847acc9c)"><path fill="#98def9" d="M 161.019531 172.101562 C 160.007812 172.101562 159.1875 171.246094 159.1875 170.195312 C 159.1875 170.355469 159.253906 170.421875 159.359375 170.421875 C 159.777344 170.421875 160.847656 169.375 161.15625 168.75 C 160.808594 169.589844 159.460938 171.367188 161.019531 172.101562 M 159.1875 170.195312 C 159.1875 169.144531 160.007812 168.292969 161.019531 168.292969 C 161.019531 168.292969 161.019531 168.292969 161.023438 168.292969 C 161.019531 168.292969 161.019531 168.292969 161.019531 168.292969 C 160.007812 168.292969 159.1875 169.144531 159.1875 170.195312 M 161.140625 168.3125 C 161.109375 168.300781 161.070312 168.292969 161.023438 168.292969 C 161.070312 168.292969 161.109375 168.300781 161.140625 168.3125 " fill-opacity="1" fill-rule="nonzero"/></g><path fill="#98def9" d="M 161.15625 168.75 C 161.246094 168.527344 161.265625 168.367188 161.140625 168.3125 C 161.273438 168.367188 161.261719 168.535156 161.15625 168.75 " fill-opacity="1" fill-rule="nonzero"/><g clip-path="url(#f875f99ac9)"><path fill="#afe5fa" d="M 159.359375 170.421875 C 159.253906 170.421875 159.1875 170.355469 159.1875 170.195312 C 159.1875 169.144531 160.007812 168.292969 161.019531 168.292969 C 161.019531 168.292969 161.019531 168.292969 161.023438 168.292969 C 161.070312 168.292969 161.109375 168.300781 161.140625 168.3125 C 161.265625 168.367188 161.246094 168.527344 161.15625 168.75 C 160.847656 169.375 159.777344 170.421875 159.359375 170.421875 " fill-opacity="1" fill-rule="nonzero"/></g><path fill="#72c3e2" d="M 161.117188 172.171875 C 162.882812 172 163.664062 168.570312 161.117188 168.21875 C 162.214844 168.21875 163.101562 169.105469 163.101562 170.195312 C 163.101562 170.96875 162.65625 171.636719 162.011719 171.960938 C 161.742188 172.097656 161.4375 172.171875 161.117188 172.171875 " fill-opacity="1" fill-rule="nonzero"/><path fill="#7dd5f7" d="M 185.558594 150.324219 C 185.558594 151.414062 184.671875 152.296875 183.574219 152.296875 C 182.480469 152.296875 181.59375 151.414062 181.59375 150.324219 C 181.59375 149.230469 182.480469 148.34375 183.574219 148.34375 C 184.671875 148.34375 185.558594 149.230469 185.558594 150.324219 " fill-opacity="1" fill-rule="nonzero"/><path fill="#98def9" d="M 183.476562 152.226562 C 182.464844 152.226562 181.644531 151.375 181.644531 150.324219 C 181.644531 150.480469 181.710938 150.546875 181.816406 150.546875 C 182.238281 150.546875 183.304688 149.5 183.613281 148.875 C 183.265625 149.71875 181.917969 151.492188 183.476562 152.226562 M 181.644531 150.324219 C 181.644531 149.269531 182.464844 148.417969 183.476562 148.417969 C 183.476562 148.417969 183.476562 148.417969 183.480469 148.417969 C 183.476562 148.417969 183.476562 148.417969 183.476562 148.417969 C 182.464844 148.417969 181.644531 149.269531 181.644531 150.324219 M 183.597656 148.4375 C 183.566406 148.425781 183.527344 148.417969 183.480469 148.417969 C 183.527344 148.417969 183.566406 148.425781 183.597656 148.4375 " fill-opacity="1" fill-rule="nonzero"/><path fill="#98def9" d="M 183.613281 148.875 C 183.703125 148.652344 183.722656 148.492188 183.597656 148.4375 C 183.730469 148.496094 183.714844 148.660156 183.613281 148.875 " fill-opacity="1" fill-rule="nonzero"/><path fill="#afe5fa" d="M 181.816406 150.546875 C 181.710938 150.546875 181.644531 150.480469 181.644531 150.324219 C 181.644531 149.269531 182.464844 148.417969 183.476562 148.417969 C 183.476562 148.417969 183.476562 148.417969 183.480469 148.417969 C 183.527344 148.417969 183.566406 148.425781 183.597656 148.4375 C 183.722656 148.492188 183.703125 148.652344 183.613281 148.875 C 183.304688 149.5 182.238281 150.546875 181.816406 150.546875 " fill-opacity="1" fill-rule="nonzero"/><path fill="#72c3e2" d="M 183.574219 152.296875 C 185.339844 152.125 186.121094 148.695312 183.574219 148.34375 C 184.671875 148.34375 185.558594 149.230469 185.558594 150.324219 C 185.558594 151.414062 184.671875 152.296875 183.574219 152.296875 " fill-opacity="1" fill-rule="nonzero"/><g clip-path="url(#09140309df)"><path fill="#7dd5f7" d="M 190.445312 140.625 C 190.445312 141.714844 189.558594 142.601562 188.464844 142.601562 C 187.371094 142.601562 186.484375 141.714844 186.484375 140.625 C 186.484375 139.53125 187.371094 138.648438 188.464844 138.648438 C 189.558594 138.648438 190.445312 139.53125 190.445312 140.625 " fill-opacity="1" fill-rule="nonzero"/></g><g clip-path="url(#9a4595d570)"><path fill="#98def9" d="M 188.367188 142.527344 C 187.355469 142.527344 186.535156 141.675781 186.535156 140.625 C 186.535156 140.78125 186.597656 140.851562 186.707031 140.851562 C 187.125 140.851562 188.195312 139.800781 188.5 139.175781 C 188.160156 140.019531 186.808594 141.792969 188.367188 142.527344 M 186.535156 140.625 C 186.535156 139.570312 187.355469 138.71875 188.367188 138.71875 C 187.355469 138.71875 186.535156 139.570312 186.535156 140.625 M 188.488281 138.742188 C 188.457031 138.726562 188.417969 138.71875 188.367188 138.71875 C 188.417969 138.71875 188.457031 138.726562 188.488281 138.742188 " fill-opacity="1" fill-rule="nonzero"/></g><g clip-path="url(#6d2bc5323c)"><path fill="#98def9" d="M 188.5 139.175781 C 188.59375 138.953125 188.613281 138.792969 188.488281 138.742188 C 188.621094 138.796875 188.605469 138.960938 188.5 139.175781 " fill-opacity="1" fill-rule="nonzero"/></g><g clip-path="url(#ebbdd86cbd)"><path fill="#afe5fa" d="M 186.707031 140.851562 C 186.597656 140.851562 186.535156 140.78125 186.535156 140.625 C 186.535156 139.570312 187.355469 138.71875 188.367188 138.71875 C 188.417969 138.71875 188.457031 138.726562 188.488281 138.742188 C 188.613281 138.792969 188.59375 138.953125 188.5 139.175781 C 188.195312 139.800781 187.125 140.851562 186.707031 140.851562 " fill-opacity="1" fill-rule="nonzero"/></g><g clip-path="url(#a3bd637069)"><path fill="#72c3e2" d="M 188.464844 142.601562 C 190.230469 142.425781 191.011719 138.996094 188.464844 138.648438 C 189.558594 138.648438 190.445312 139.53125 190.445312 140.625 C 190.445312 140.988281 190.347656 141.328125 190.179688 141.621094 C 190.070312 141.804688 189.929688 141.972656 189.769531 142.113281 C 189.421875 142.414062 188.964844 142.601562 188.464844 142.601562 " fill-opacity="1" fill-rule="nonzero"/></g><path fill="#7dd5f7" d="M 198.765625 148.417969 C 198.765625 149.511719 197.878906 150.394531 196.785156 150.394531 C 195.6875 150.394531 194.800781 149.511719 194.800781 148.417969 C 194.800781 147.328125 195.6875 146.441406 196.785156 146.441406 C 197.878906 146.441406 198.765625 147.328125 198.765625 148.417969 " fill-opacity="1" fill-rule="nonzero"/><path fill="#98def9" d="M 196.683594 150.324219 C 195.671875 150.324219 194.851562 149.46875 194.851562 148.417969 C 194.851562 148.578125 194.917969 148.644531 195.023438 148.644531 C 195.445312 148.644531 196.515625 147.597656 196.820312 146.972656 C 196.476562 147.8125 195.125 149.589844 196.683594 150.324219 M 194.851562 148.417969 C 194.851562 147.367188 195.671875 146.515625 196.683594 146.515625 C 196.683594 146.515625 196.6875 146.515625 196.6875 146.515625 C 196.6875 146.515625 196.683594 146.515625 196.683594 146.515625 C 195.671875 146.515625 194.851562 147.367188 194.851562 148.417969 M 196.804688 146.535156 C 196.773438 146.523438 196.734375 146.515625 196.6875 146.515625 C 196.734375 146.515625 196.773438 146.523438 196.804688 146.535156 " fill-opacity="1" fill-rule="nonzero"/><path fill="#98def9" d="M 196.820312 146.972656 C 196.910156 146.746094 196.929688 146.589844 196.804688 146.535156 C 196.9375 146.589844 196.925781 146.757812 196.820312 146.972656 " fill-opacity="1" fill-rule="nonzero"/><path fill="#afe5fa" d="M 195.023438 148.644531 C 194.917969 148.644531 194.851562 148.578125 194.851562 148.417969 C 194.851562 147.367188 195.671875 146.515625 196.683594 146.515625 C 196.683594 146.515625 196.6875 146.515625 196.6875 146.515625 C 196.734375 146.515625 196.773438 146.523438 196.804688 146.535156 C 196.929688 146.589844 196.910156 146.746094 196.820312 146.972656 C 196.515625 147.597656 195.445312 148.644531 195.023438 148.644531 " fill-opacity="1" fill-rule="nonzero"/><path fill="#72c3e2" d="M 196.785156 150.394531 C 198.546875 150.222656 199.328125 146.789062 196.785156 146.441406 C 197.878906 146.441406 198.765625 147.328125 198.765625 148.417969 C 198.765625 148.542969 198.753906 148.660156 198.734375 148.777344 C 198.71875 148.863281 198.695312 148.949219 198.667969 149.027344 C 198.410156 149.820312 197.664062 150.394531 196.785156 150.394531 " fill-opacity="1" fill-rule="nonzero"/><path fill="#7dd5f7" d="M 220.113281 146.324219 C 220.113281 147.414062 219.226562 148.300781 218.128906 148.300781 C 217.035156 148.300781 216.148438 147.414062 216.148438 146.324219 C 216.148438 145.230469 217.035156 144.347656 218.128906 144.347656 C 219.226562 144.347656 220.113281 145.230469 220.113281 146.324219 " fill-opacity="1" fill-rule="nonzero"/><path fill="#98def9" d="M 218.03125 148.226562 C 217.019531 148.226562 216.199219 147.375 216.199219 146.324219 C 216.199219 146.480469 216.265625 146.550781 216.371094 146.550781 C 216.792969 146.550781 217.863281 145.5 218.167969 144.875 C 217.824219 145.71875 216.472656 147.496094 218.03125 148.226562 M 216.199219 146.324219 C 216.199219 145.273438 217.019531 144.417969 218.03125 144.417969 C 218.03125 144.417969 218.03125 144.417969 218.035156 144.417969 C 218.03125 144.417969 218.03125 144.417969 218.03125 144.417969 C 217.019531 144.417969 216.199219 145.273438 216.199219 146.324219 M 218.152344 144.441406 C 218.121094 144.425781 218.082031 144.417969 218.035156 144.417969 C 218.082031 144.417969 218.125 144.425781 218.152344 144.441406 " fill-opacity="1" fill-rule="nonzero"/><path fill="#98def9" d="M 218.167969 144.875 C 218.257812 144.652344 218.277344 144.496094 218.152344 144.441406 C 218.285156 144.496094 218.273438 144.660156 218.167969 144.875 " fill-opacity="1" fill-rule="nonzero"/><path fill="#afe5fa" d="M 216.371094 146.550781 C 216.265625 146.550781 216.199219 146.480469 216.199219 146.324219 C 216.199219 145.273438 217.019531 144.417969 218.03125 144.417969 C 218.03125 144.417969 218.03125 144.417969 218.035156 144.417969 C 218.082031 144.417969 218.121094 144.425781 218.152344 144.441406 C 218.277344 144.496094 218.257812 144.652344 218.167969 144.875 C 217.863281 145.5 216.792969 146.550781 216.371094 146.550781 " fill-opacity="1" fill-rule="nonzero"/><path fill="#72c3e2" d="M 218.128906 148.300781 C 219.894531 148.128906 220.675781 144.695312 218.128906 144.347656 C 219.226562 144.347656 220.113281 145.230469 220.113281 146.324219 C 220.113281 147.414062 219.226562 148.300781 218.128906 148.300781 " fill-opacity="1" fill-rule="nonzero"/><path fill="#7dd5f7" d="M 222.09375 159.710938 C 222.09375 160.800781 221.207031 161.6875 220.113281 161.6875 C 219.019531 161.6875 218.132812 160.800781 218.132812 159.710938 C 218.132812 158.621094 219.019531 157.734375 220.113281 157.734375 C 221.207031 157.734375 222.09375 158.621094 222.09375 159.710938 " fill-opacity="1" fill-rule="nonzero"/><path fill="#98def9" d="M 220.011719 161.613281 C 219 161.613281 218.179688 160.761719 218.179688 159.710938 C 218.179688 159.871094 218.246094 159.9375 218.351562 159.9375 C 218.773438 159.9375 219.84375 158.886719 220.148438 158.261719 C 219.804688 159.105469 218.453125 160.882812 220.011719 161.613281 M 218.179688 159.710938 C 218.179688 158.660156 219 157.808594 220.011719 157.808594 C 220.015625 157.808594 220.015625 157.808594 220.015625 157.808594 C 220.015625 157.808594 220.015625 157.808594 220.011719 157.808594 C 219 157.808594 218.179688 158.660156 218.179688 159.710938 M 220.132812 157.828125 C 220.101562 157.8125 220.0625 157.808594 220.015625 157.808594 C 220.066406 157.808594 220.105469 157.8125 220.132812 157.828125 " fill-opacity="1" fill-rule="nonzero"/><path fill="#98def9" d="M 220.148438 158.261719 C 220.238281 158.039062 220.261719 157.882812 220.132812 157.828125 C 220.269531 157.882812 220.253906 158.046875 220.148438 158.261719 M 220.015625 157.808594 L 220.015625 157.808594 " fill-opacity="1" fill-rule="nonzero"/><path fill="#afe5fa" d="M 218.351562 159.9375 C 218.246094 159.9375 218.179688 159.871094 218.179688 159.710938 C 218.179688 158.660156 219 157.808594 220.011719 157.808594 C 220.015625 157.808594 220.015625 157.808594 220.015625 157.808594 C 220.0625 157.808594 220.101562 157.8125 220.132812 157.828125 C 220.261719 157.882812 220.238281 158.039062 220.148438 158.261719 C 219.84375 158.886719 218.773438 159.9375 218.351562 159.9375 " fill-opacity="1" fill-rule="nonzero"/><path fill="#72c3e2" d="M 220.113281 161.6875 C 221.878906 161.515625 222.660156 158.082031 220.113281 157.734375 C 221.207031 157.734375 222.09375 158.621094 222.09375 159.710938 C 222.09375 160.800781 221.207031 161.6875 220.113281 161.6875 " fill-opacity="1" fill-rule="nonzero"/><path fill="#7dd5f7" d="M 233.351562 158.351562 C 233.351562 159.441406 232.464844 160.328125 231.367188 160.328125 C 230.273438 160.328125 229.386719 159.441406 229.386719 158.351562 C 229.386719 157.257812 230.273438 156.375 231.367188 156.375 C 232.464844 156.375 233.351562 157.257812 233.351562 158.351562 " fill-opacity="1" fill-rule="nonzero"/><path fill="#98def9" d="M 231.269531 160.253906 C 230.257812 160.253906 229.4375 159.402344 229.4375 158.351562 C 229.4375 158.507812 229.503906 158.578125 229.609375 158.578125 C 230.027344 158.578125 231.097656 157.53125 231.40625 156.902344 C 231.0625 157.746094 229.710938 159.523438 231.269531 160.253906 M 229.4375 158.351562 C 229.4375 157.300781 230.257812 156.449219 231.269531 156.449219 C 231.269531 156.449219 231.269531 156.449219 231.273438 156.449219 C 231.269531 156.449219 231.269531 156.449219 231.269531 156.449219 C 230.257812 156.449219 229.4375 157.300781 229.4375 158.351562 M 231.390625 156.46875 C 231.359375 156.453125 231.320312 156.449219 231.273438 156.449219 C 231.320312 156.449219 231.359375 156.453125 231.390625 156.46875 " fill-opacity="1" fill-rule="nonzero"/><path fill="#98def9" d="M 231.40625 156.902344 C 231.496094 156.679688 231.515625 156.523438 231.390625 156.46875 C 231.523438 156.523438 231.507812 156.6875 231.40625 156.902344 " fill-opacity="1" fill-rule="nonzero"/><path fill="#afe5fa" d="M 229.609375 158.578125 C 229.503906 158.578125 229.4375 158.507812 229.4375 158.351562 C 229.4375 157.300781 230.257812 156.449219 231.269531 156.449219 C 231.269531 156.449219 231.269531 156.449219 231.273438 156.449219 C 231.320312 156.449219 231.359375 156.453125 231.390625 156.46875 C 231.515625 156.523438 231.496094 156.679688 231.40625 156.902344 C 231.097656 157.53125 230.027344 158.578125 229.609375 158.578125 " fill-opacity="1" fill-rule="nonzero"/><path fill="#72c3e2" d="M 231.367188 160.328125 C 233.132812 160.15625 233.914062 156.722656 231.367188 156.375 C 232.464844 156.375 233.351562 157.257812 233.351562 158.351562 C 233.351562 159.441406 232.464844 160.328125 231.367188 160.328125 " fill-opacity="1" fill-rule="nonzero"/><path fill="#7dd5f7" d="M 233.46875 173.160156 C 233.46875 174.25 232.582031 175.136719 231.488281 175.136719 C 230.394531 175.136719 229.503906 174.25 229.503906 173.160156 C 229.503906 172.070312 230.394531 171.183594 231.488281 171.183594 C 232.582031 171.183594 233.46875 172.070312 233.46875 173.160156 " fill-opacity="1" fill-rule="nonzero"/><path fill="#98def9" d="M 231.386719 175.0625 C 230.375 175.0625 229.554688 174.210938 229.554688 173.160156 C 229.554688 173.320312 229.621094 173.386719 229.726562 173.386719 C 230.148438 173.386719 231.21875 172.339844 231.523438 171.714844 C 231.179688 172.554688 229.828125 174.332031 231.386719 175.0625 M 229.554688 173.160156 C 229.554688 172.109375 230.375 171.257812 231.386719 171.257812 C 231.386719 171.257812 231.390625 171.257812 231.390625 171.257812 C 231.390625 171.257812 231.386719 171.257812 231.386719 171.257812 C 230.375 171.257812 229.554688 172.109375 229.554688 173.160156 M 231.511719 171.277344 C 231.476562 171.265625 231.4375 171.257812 231.390625 171.257812 C 231.441406 171.257812 231.480469 171.265625 231.511719 171.277344 " fill-opacity="1" fill-rule="nonzero"/><path fill="#98def9" d="M 231.523438 171.714844 C 231.613281 171.488281 231.636719 171.332031 231.511719 171.277344 C 231.644531 171.332031 231.628906 171.5 231.523438 171.714844 " fill-opacity="1" fill-rule="nonzero"/><path fill="#afe5fa" d="M 229.726562 173.386719 C 229.621094 173.386719 229.554688 173.320312 229.554688 173.160156 C 229.554688 172.109375 230.375 171.257812 231.386719 171.257812 C 231.386719 171.257812 231.390625 171.257812 231.390625 171.257812 C 231.4375 171.257812 231.476562 171.265625 231.511719 171.277344 C 231.636719 171.332031 231.613281 171.488281 231.523438 171.714844 C 231.21875 172.339844 230.148438 173.386719 229.726562 173.386719 " fill-opacity="1" fill-rule="nonzero"/><path fill="#72c3e2" d="M 231.488281 175.136719 C 233.25 174.964844 234.03125 171.53125 231.488281 171.183594 C 232.582031 171.183594 233.46875 172.070312 233.46875 173.160156 C 233.46875 174.25 232.582031 175.136719 231.488281 175.136719 " fill-opacity="1" fill-rule="nonzero"/><path fill="#7dd5f7" d="M 231.367188 182.492188 C 231.367188 183.582031 230.480469 184.46875 229.386719 184.46875 C 228.292969 184.46875 227.40625 183.582031 227.40625 182.492188 C 227.40625 181.398438 228.292969 180.511719 229.386719 180.511719 C 230.480469 180.511719 231.367188 181.398438 231.367188 182.492188 " fill-opacity="1" fill-rule="nonzero"/><path fill="#98def9" d="M 229.289062 184.394531 C 228.277344 184.394531 227.457031 183.542969 227.457031 182.492188 C 227.457031 182.648438 227.519531 182.71875 227.628906 182.71875 C 228.046875 182.71875 229.117188 181.667969 229.421875 181.042969 C 229.078125 181.886719 227.730469 183.664062 229.289062 184.394531 M 227.457031 182.492188 C 227.457031 181.4375 228.277344 180.585938 229.289062 180.585938 C 228.277344 180.585938 227.457031 181.4375 227.457031 182.492188 M 229.410156 180.605469 C 229.378906 180.59375 229.339844 180.585938 229.289062 180.585938 C 229.339844 180.585938 229.378906 180.59375 229.410156 180.605469 " fill-opacity="1" fill-rule="nonzero"/><path fill="#98def9" d="M 229.421875 181.042969 C 229.515625 180.820312 229.535156 180.660156 229.410156 180.605469 C 229.542969 180.664062 229.527344 180.828125 229.421875 181.042969 " fill-opacity="1" fill-rule="nonzero"/><path fill="#afe5fa" d="M 227.628906 182.71875 C 227.519531 182.71875 227.457031 182.648438 227.457031 182.492188 C 227.457031 181.4375 228.277344 180.585938 229.289062 180.585938 C 229.339844 180.585938 229.378906 180.59375 229.410156 180.605469 C 229.535156 180.660156 229.515625 180.820312 229.421875 181.042969 C 229.117188 181.667969 228.046875 182.71875 227.628906 182.71875 " fill-opacity="1" fill-rule="nonzero"/><path fill="#72c3e2" d="M 229.386719 184.46875 C 231.152344 184.292969 231.933594 180.863281 229.386719 180.511719 C 230.480469 180.511719 231.367188 181.398438 231.367188 182.492188 C 231.367188 183.582031 230.480469 184.46875 229.386719 184.46875 " fill-opacity="1" fill-rule="nonzero"/><path fill="#7dd5f7" d="M 210.210938 192.558594 L 210.035156 191.949219 L 224.769531 187.730469 L 214.488281 179.007812 L 213.929688 162.015625 L 192.308594 167.304688 L 186.429688 160.746094 L 180.265625 164.851562 L 172.605469 152.664062 L 173.144531 152.324219 L 180.457031 163.957031 L 186.539062 159.910156 L 192.527344 166.597656 L 214.539062 161.210938 L 215.113281 178.703125 L 226.089844 188.015625 L 210.210938 192.558594 " fill-opacity="1" fill-rule="nonzero"/><path fill="#7dd5f7" d="M 216.214844 161.613281 C 216.214844 162.707031 215.328125 163.589844 214.234375 163.589844 C 213.140625 163.589844 212.25 162.707031 212.25 161.613281 C 212.25 160.523438 213.140625 159.636719 214.234375 159.636719 C 215.328125 159.636719 216.214844 160.523438 216.214844 161.613281 " fill-opacity="1" fill-rule="nonzero"/><path fill="#98def9" d="M 214.132812 163.519531 C 213.121094 163.519531 212.300781 162.667969 212.300781 161.613281 C 212.300781 161.773438 212.367188 161.839844 212.472656 161.839844 C 212.894531 161.839844 213.964844 160.792969 214.269531 160.167969 C 213.925781 161.007812 212.574219 162.785156 214.132812 163.519531 M 212.300781 161.613281 C 212.300781 160.5625 213.121094 159.710938 214.132812 159.710938 C 214.132812 159.710938 214.136719 159.710938 214.136719 159.710938 C 214.136719 159.710938 214.132812 159.710938 214.132812 159.710938 C 213.121094 159.710938 212.300781 160.5625 212.300781 161.613281 M 214.257812 159.730469 C 214.226562 159.71875 214.183594 159.710938 214.136719 159.710938 C 214.1875 159.710938 214.226562 159.71875 214.257812 159.730469 " fill-opacity="1" fill-rule="nonzero"/><path fill="#98def9" d="M 214.269531 160.167969 C 214.359375 159.941406 214.382812 159.785156 214.257812 159.730469 C 214.390625 159.789062 214.375 159.953125 214.269531 160.167969 " fill-opacity="1" fill-rule="nonzero"/><path fill="#afe5fa" d="M 212.472656 161.839844 C 212.367188 161.839844 212.300781 161.773438 212.300781 161.613281 C 212.300781 160.5625 213.121094 159.710938 214.132812 159.710938 C 214.132812 159.710938 214.136719 159.710938 214.136719 159.710938 C 214.183594 159.710938 214.226562 159.71875 214.257812 159.730469 C 214.382812 159.785156 214.359375 159.941406 214.269531 160.167969 C 213.964844 160.792969 212.894531 161.839844 212.472656 161.839844 " fill-opacity="1" fill-rule="nonzero"/><path fill="#72c3e2" d="M 214.234375 163.589844 C 216 163.417969 216.78125 159.984375 214.234375 159.636719 C 215.328125 159.636719 216.214844 160.523438 216.214844 161.613281 C 216.214844 162.707031 215.328125 163.589844 214.234375 163.589844 " fill-opacity="1" fill-rule="nonzero"/><path fill="#7dd5f7" d="M 216.332031 178.855469 C 216.332031 179.949219 215.445312 180.832031 214.351562 180.832031 C 213.257812 180.832031 212.371094 179.949219 212.371094 178.855469 C 212.371094 177.765625 213.257812 176.878906 214.351562 176.878906 C 215.445312 176.878906 216.332031 177.765625 216.332031 178.855469 " fill-opacity="1" fill-rule="nonzero"/><path fill="#98def9" d="M 214.253906 180.757812 C 213.238281 180.757812 212.421875 179.90625 212.421875 178.855469 C 212.421875 179.015625 212.484375 179.082031 212.589844 179.082031 C 213.011719 179.082031 214.082031 178.03125 214.386719 177.40625 C 214.046875 178.25 212.691406 180.027344 214.253906 180.757812 M 212.421875 178.855469 C 212.421875 177.804688 213.238281 176.953125 214.253906 176.953125 C 213.238281 176.953125 212.421875 177.804688 212.421875 178.855469 M 214.375 176.972656 C 214.34375 176.960938 214.304688 176.953125 214.253906 176.953125 C 214.304688 176.953125 214.34375 176.960938 214.375 176.972656 " fill-opacity="1" fill-rule="nonzero"/><path fill="#98def9" d="M 214.386719 177.40625 C 214.480469 177.183594 214.5 177.027344 214.375 176.972656 C 214.507812 177.027344 214.492188 177.191406 214.386719 177.40625 " fill-opacity="1" fill-rule="nonzero"/><path fill="#afe5fa" d="M 212.589844 179.082031 C 212.484375 179.082031 212.421875 179.015625 212.421875 178.855469 C 212.421875 177.804688 213.238281 176.953125 214.253906 176.953125 C 214.304688 176.953125 214.34375 176.960938 214.375 176.972656 C 214.5 177.027344 214.480469 177.183594 214.386719 177.40625 C 214.082031 178.03125 213.011719 179.082031 212.589844 179.082031 " fill-opacity="1" fill-rule="nonzero"/><path fill="#72c3e2" d="M 214.351562 180.832031 C 216.117188 180.660156 216.898438 177.226562 214.351562 176.878906 C 215.445312 176.878906 216.332031 177.765625 216.332031 178.855469 C 216.332031 179.121094 216.28125 179.378906 216.183594 179.609375 C 216.101562 179.8125 215.984375 179.996094 215.84375 180.15625 C 215.480469 180.570312 214.945312 180.832031 214.351562 180.832031 " fill-opacity="1" fill-rule="nonzero"/><path fill="#7dd5f7" d="M 228.476562 187.761719 C 228.476562 188.851562 227.589844 189.738281 226.496094 189.738281 C 225.402344 189.738281 224.511719 188.851562 224.511719 187.761719 C 224.511719 186.671875 225.402344 185.785156 226.496094 185.785156 C 227.589844 185.785156 228.476562 186.671875 228.476562 187.761719 " fill-opacity="1" fill-rule="nonzero"/><path fill="#98def9" d="M 226.394531 189.664062 C 225.382812 189.664062 224.5625 188.8125 224.5625 187.761719 C 224.5625 187.917969 224.628906 187.988281 224.734375 187.988281 C 225.15625 187.988281 226.226562 186.9375 226.53125 186.3125 C 226.1875 187.15625 224.835938 188.933594 226.394531 189.664062 M 224.5625 187.761719 C 224.5625 186.710938 225.382812 185.859375 226.394531 185.859375 C 226.394531 185.859375 226.398438 185.859375 226.398438 185.859375 C 226.398438 185.859375 226.394531 185.859375 226.394531 185.859375 C 225.382812 185.859375 224.5625 186.710938 224.5625 187.761719 M 226.515625 185.878906 C 226.484375 185.867188 226.445312 185.859375 226.398438 185.859375 C 226.445312 185.859375 226.488281 185.867188 226.515625 185.878906 " fill-opacity="1" fill-rule="nonzero"/><path fill="#98def9" d="M 226.53125 186.3125 C 226.621094 186.089844 226.644531 185.933594 226.515625 185.878906 C 226.652344 185.933594 226.636719 186.097656 226.53125 186.3125 " fill-opacity="1" fill-rule="nonzero"/><path fill="#afe5fa" d="M 224.734375 187.988281 C 224.628906 187.988281 224.5625 187.917969 224.5625 187.761719 C 224.5625 186.710938 225.382812 185.859375 226.394531 185.859375 C 226.394531 185.859375 226.398438 185.859375 226.398438 185.859375 C 226.445312 185.859375 226.484375 185.867188 226.515625 185.878906 C 226.644531 185.933594 226.621094 186.089844 226.53125 186.3125 C 226.226562 186.9375 225.15625 187.988281 224.734375 187.988281 " fill-opacity="1" fill-rule="nonzero"/><path fill="#72c3e2" d="M 226.496094 189.738281 C 228.261719 189.5625 229.039062 186.132812 226.496094 185.785156 C 227.589844 185.785156 228.476562 186.671875 228.476562 187.761719 C 228.476562 188.851562 227.589844 189.738281 226.496094 189.738281 " fill-opacity="1" fill-rule="nonzero"/><path fill="#7dd5f7" d="M 212.828125 192.253906 C 212.828125 193.347656 211.941406 194.230469 210.847656 194.230469 C 209.753906 194.230469 208.867188 193.347656 208.867188 192.253906 C 208.867188 191.164062 209.753906 190.277344 210.847656 190.277344 C 211.941406 190.277344 212.828125 191.164062 212.828125 192.253906 " fill-opacity="1" fill-rule="nonzero"/><path fill="#98def9" d="M 210.75 194.160156 C 209.738281 194.160156 208.917969 193.304688 208.917969 192.253906 C 208.917969 192.414062 208.980469 192.480469 209.085938 192.480469 C 209.507812 192.480469 210.578125 191.433594 210.882812 190.804688 C 210.539062 191.648438 209.1875 193.425781 210.75 194.160156 M 208.917969 192.253906 C 208.917969 191.203125 209.738281 190.351562 210.75 190.351562 C 209.738281 190.351562 208.917969 191.203125 208.917969 192.253906 M 210.871094 190.371094 C 210.839844 190.359375 210.800781 190.351562 210.75 190.351562 C 210.800781 190.351562 210.839844 190.359375 210.871094 190.371094 " fill-opacity="1" fill-rule="nonzero"/><path fill="#98def9" d="M 210.882812 190.804688 C 210.976562 190.582031 210.996094 190.425781 210.871094 190.371094 C 211.003906 190.425781 210.988281 190.589844 210.882812 190.804688 " fill-opacity="1" fill-rule="nonzero"/><path fill="#afe5fa" d="M 209.085938 192.480469 C 208.980469 192.480469 208.917969 192.414062 208.917969 192.253906 C 208.917969 191.203125 209.738281 190.351562 210.75 190.351562 C 210.800781 190.351562 210.839844 190.359375 210.871094 190.371094 C 210.996094 190.425781 210.976562 190.582031 210.882812 190.804688 C 210.578125 191.433594 209.507812 192.480469 209.085938 192.480469 " fill-opacity="1" fill-rule="nonzero"/><path fill="#72c3e2" d="M 210.847656 194.230469 C 212.613281 194.058594 213.394531 190.628906 210.847656 190.277344 C 211.941406 190.277344 212.828125 191.164062 212.828125 192.253906 C 212.828125 193.347656 211.941406 194.230469 210.847656 194.230469 " fill-opacity="1" fill-rule="nonzero"/><path fill="#7dd5f7" d="M 195.34375 167.507812 C 195.34375 168.597656 194.457031 169.484375 193.363281 169.484375 C 192.269531 169.484375 191.382812 168.597656 191.382812 167.507812 C 191.382812 166.414062 192.269531 165.53125 193.363281 165.53125 C 194.457031 165.53125 195.34375 166.414062 195.34375 167.507812 " fill-opacity="1" fill-rule="nonzero"/><path fill="#98def9" d="M 193.265625 169.410156 C 192.253906 169.410156 191.433594 168.558594 191.433594 167.507812 C 191.433594 167.664062 191.496094 167.730469 191.601562 167.730469 C 192.023438 167.730469 193.097656 166.683594 193.398438 166.058594 C 193.058594 166.898438 191.707031 168.675781 193.265625 169.410156 M 191.433594 167.507812 C 191.433594 166.453125 192.253906 165.601562 193.265625 165.601562 C 192.253906 165.601562 191.433594 166.453125 191.433594 167.507812 M 193.386719 165.625 C 193.355469 165.609375 193.316406 165.601562 193.265625 165.601562 C 193.316406 165.601562 193.355469 165.609375 193.386719 165.625 " fill-opacity="1" fill-rule="nonzero"/><path fill="#98def9" d="M 193.398438 166.058594 C 193.492188 165.835938 193.511719 165.679688 193.386719 165.625 C 193.519531 165.679688 193.503906 165.84375 193.398438 166.058594 " fill-opacity="1" fill-rule="nonzero"/><path fill="#afe5fa" d="M 191.601562 167.730469 C 191.496094 167.730469 191.433594 167.664062 191.433594 167.507812 C 191.433594 166.453125 192.253906 165.601562 193.265625 165.601562 C 193.316406 165.601562 193.355469 165.609375 193.386719 165.625 C 193.511719 165.679688 193.492188 165.835938 193.398438 166.058594 C 193.097656 166.683594 192.023438 167.730469 191.601562 167.730469 " fill-opacity="1" fill-rule="nonzero"/><path fill="#72c3e2" d="M 193.363281 169.484375 C 195.128906 169.3125 195.910156 165.878906 193.363281 165.53125 C 194.457031 165.53125 195.34375 166.414062 195.34375 167.507812 C 195.34375 168.597656 194.457031 169.484375 193.363281 169.484375 " fill-opacity="1" fill-rule="nonzero"/><path fill="#7dd5f7" d="M 188.464844 160.328125 C 188.464844 161.417969 187.578125 162.304688 186.484375 162.304688 C 185.390625 162.304688 184.503906 161.417969 184.503906 160.328125 C 184.503906 159.234375 185.390625 158.351562 186.484375 158.351562 C 187.578125 158.351562 188.464844 159.234375 188.464844 160.328125 " fill-opacity="1" fill-rule="nonzero"/><path fill="#98def9" d="M 186.382812 162.230469 C 185.371094 162.230469 184.550781 161.378906 184.550781 160.328125 C 184.550781 160.484375 184.617188 160.554688 184.722656 160.554688 C 185.144531 160.554688 186.214844 159.503906 186.519531 158.878906 C 186.175781 159.722656 184.824219 161.5 186.382812 162.230469 M 184.550781 160.328125 C 184.550781 159.277344 185.371094 158.425781 186.382812 158.425781 C 186.386719 158.425781 186.386719 158.425781 186.386719 158.425781 C 186.386719 158.425781 186.386719 158.425781 186.382812 158.425781 C 185.371094 158.425781 184.550781 159.277344 184.550781 160.328125 M 186.503906 158.445312 C 186.472656 158.429688 186.433594 158.425781 186.386719 158.425781 C 186.4375 158.425781 186.476562 158.429688 186.503906 158.445312 " fill-opacity="1" fill-rule="nonzero"/><path fill="#98def9" d="M 186.519531 158.878906 C 186.613281 158.65625 186.632812 158.5 186.503906 158.445312 C 186.640625 158.5 186.625 158.664062 186.519531 158.878906 " fill-opacity="1" fill-rule="nonzero"/><path fill="#afe5fa" d="M 184.722656 160.554688 C 184.617188 160.554688 184.550781 160.484375 184.550781 160.328125 C 184.550781 159.277344 185.371094 158.425781 186.382812 158.425781 C 186.386719 158.425781 186.386719 158.425781 186.386719 158.425781 C 186.433594 158.425781 186.472656 158.429688 186.503906 158.445312 C 186.632812 158.5 186.613281 158.65625 186.519531 158.878906 C 186.214844 159.503906 185.144531 160.554688 184.722656 160.554688 " fill-opacity="1" fill-rule="nonzero"/><path fill="#72c3e2" d="M 186.484375 162.304688 C 188.25 162.132812 189.03125 158.699219 186.484375 158.351562 C 187.578125 158.351562 188.464844 159.234375 188.464844 160.328125 C 188.464844 160.796875 188.300781 161.230469 188.027344 161.570312 C 187.890625 161.734375 187.730469 161.878906 187.550781 161.992188 C 187.242188 162.191406 186.875 162.304688 186.484375 162.304688 " fill-opacity="1" fill-rule="nonzero"/><path fill="#7dd5f7" d="M 182.960938 164.28125 C 182.960938 165.371094 182.074219 166.257812 180.976562 166.257812 C 179.882812 166.257812 178.996094 165.371094 178.996094 164.28125 C 178.996094 163.1875 179.882812 162.304688 180.976562 162.304688 C 182.074219 162.304688 182.960938 163.1875 182.960938 164.28125 " fill-opacity="1" fill-rule="nonzero"/><path fill="#98def9" d="M 180.878906 166.183594 C 179.867188 166.183594 179.046875 165.332031 179.046875 164.28125 C 179.046875 164.441406 179.109375 164.507812 179.21875 164.507812 C 179.636719 164.507812 180.710938 163.457031 181.015625 162.832031 C 180.671875 163.671875 179.320312 165.453125 180.878906 166.183594 M 179.046875 164.28125 C 179.046875 163.230469 179.867188 162.378906 180.878906 162.378906 C 180.878906 162.378906 180.878906 162.378906 180.882812 162.378906 C 180.878906 162.378906 180.878906 162.378906 180.878906 162.378906 C 179.867188 162.378906 179.046875 163.230469 179.046875 164.28125 M 181 162.398438 C 180.96875 162.386719 180.929688 162.378906 180.882812 162.378906 C 180.929688 162.378906 180.96875 162.386719 181 162.398438 " fill-opacity="1" fill-rule="nonzero"/><path fill="#98def9" d="M 181.015625 162.832031 C 181.105469 162.609375 181.125 162.453125 181 162.398438 C 181.132812 162.453125 181.117188 162.617188 181.015625 162.832031 " fill-opacity="1" fill-rule="nonzero"/><path fill="#afe5fa" d="M 179.21875 164.507812 C 179.109375 164.507812 179.046875 164.441406 179.046875 164.28125 C 179.046875 163.230469 179.867188 162.378906 180.878906 162.378906 C 180.878906 162.378906 180.878906 162.378906 180.882812 162.378906 C 180.929688 162.378906 180.96875 162.386719 181 162.398438 C 181.125 162.453125 181.105469 162.609375 181.015625 162.832031 C 180.710938 163.457031 179.636719 164.507812 179.21875 164.507812 " fill-opacity="1" fill-rule="nonzero"/><path fill="#72c3e2" d="M 180.976562 166.257812 C 182.742188 166.085938 183.523438 162.652344 180.976562 162.304688 C 182.074219 162.304688 182.960938 163.1875 182.960938 164.28125 C 182.960938 165.371094 182.074219 166.257812 180.976562 166.257812 " fill-opacity="1" fill-rule="nonzero"/><path fill="#7dd5f7" d="M 175.160156 152.605469 C 175.160156 153.699219 174.273438 154.582031 173.175781 154.582031 C 172.082031 154.582031 171.195312 153.699219 171.195312 152.605469 C 171.195312 151.515625 172.082031 150.628906 173.175781 150.628906 C 174.273438 150.628906 175.160156 151.515625 175.160156 152.605469 " fill-opacity="1" fill-rule="nonzero"/><path fill="#98def9" d="M 173.078125 154.511719 C 172.066406 154.511719 171.246094 153.65625 171.246094 152.605469 C 171.246094 152.765625 171.308594 152.832031 171.414062 152.832031 C 171.835938 152.832031 172.910156 151.785156 173.214844 151.160156 C 172.871094 152 171.515625 153.777344 173.078125 154.511719 M 171.246094 152.605469 C 171.246094 151.554688 172.066406 150.703125 173.078125 150.703125 C 172.066406 150.703125 171.246094 151.554688 171.246094 152.605469 M 173.199219 150.722656 C 173.167969 150.710938 173.128906 150.703125 173.078125 150.703125 C 173.128906 150.703125 173.167969 150.710938 173.199219 150.722656 " fill-opacity="1" fill-rule="nonzero"/><path fill="#98def9" d="M 173.214844 151.160156 C 173.304688 150.933594 173.324219 150.777344 173.199219 150.722656 C 173.332031 150.777344 173.316406 150.945312 173.214844 151.160156 " fill-opacity="1" fill-rule="nonzero"/><path fill="#afe5fa" d="M 171.414062 152.832031 C 171.308594 152.832031 171.246094 152.765625 171.246094 152.605469 C 171.246094 151.554688 172.066406 150.703125 173.078125 150.703125 C 173.128906 150.703125 173.167969 150.710938 173.199219 150.722656 C 173.324219 150.777344 173.304688 150.933594 173.214844 151.160156 C 172.910156 151.785156 171.835938 152.832031 171.414062 152.832031 " fill-opacity="1" fill-rule="nonzero"/><path fill="#72c3e2" d="M 173.175781 154.582031 C 174.941406 154.410156 175.722656 150.976562 173.175781 150.628906 C 174.273438 150.628906 175.160156 151.515625 175.160156 152.605469 C 175.160156 153.269531 174.832031 153.851562 174.332031 154.210938 C 174.160156 154.335938 173.964844 154.433594 173.757812 154.496094 C 173.574219 154.554688 173.378906 154.582031 173.175781 154.582031 " fill-opacity="1" fill-rule="nonzero"/><path fill="#7dd5f7" d="M 188.300781 201.660156 L 171.324219 186.6875 L 163.160156 189.730469 L 162.9375 189.132812 L 171.457031 185.957031 L 188.132812 200.664062 L 196.546875 185.882812 L 209.949219 182.878906 L 203.441406 164.285156 L 204.042969 164.074219 L 210.789062 183.34375 L 196.964844 186.441406 L 188.300781 201.660156 " fill-opacity="1" fill-rule="nonzero"/><path fill="#7dd5f7" d="M 189.972656 202.082031 C 190.480469 201.117188 190.109375 199.921875 189.140625 199.414062 C 188.171875 198.90625 186.972656 199.277344 186.460938 200.246094 C 185.953125 201.210938 186.328125 202.40625 187.296875 202.914062 C 188.265625 203.421875 189.460938 203.050781 189.972656 202.082031 " fill-opacity="1" fill-rule="nonzero"/><path fill="#98def9" d="M 187.359375 202.839844 C 187.324219 202.839844 187.285156 202.828125 187.242188 202.804688 C 187.285156 202.824219 187.324219 202.839844 187.359375 202.839844 M 187.574219 202.460938 C 187.582031 202.203125 187.523438 201.84375 187.425781 201.484375 C 187.246094 200.804688 186.933594 200.125 186.683594 200.125 C 186.617188 200.125 186.558594 200.167969 186.507812 200.269531 C 186.351562 200.5625 186.28125 200.875 186.28125 201.179688 C 186.28125 200.875 186.351562 200.5625 186.507812 200.269531 C 186.855469 199.609375 187.515625 199.230469 188.195312 199.230469 C 188.472656 199.230469 188.753906 199.296875 189.015625 199.433594 C 188.988281 199.429688 188.960938 199.429688 188.933594 199.429688 C 187.90625 199.429688 187.667969 200.28125 187.613281 201.136719 C 187.578125 201.632812 187.605469 202.132812 187.574219 202.460938 " fill-opacity="1" fill-rule="nonzero"/><path fill="#98def9" d="M 187.375 202.84375 C 187.371094 202.84375 187.363281 202.84375 187.359375 202.839844 C 187.363281 202.839844 187.367188 202.84375 187.371094 202.84375 C 187.5 202.84375 187.550781 202.695312 187.574219 202.460938 C 187.566406 202.691406 187.507812 202.84375 187.375 202.84375 " fill-opacity="1" fill-rule="nonzero"/><path fill="#afe5fa" d="M 187.371094 202.84375 C 187.367188 202.84375 187.363281 202.839844 187.359375 202.839844 C 187.324219 202.839844 187.285156 202.824219 187.242188 202.804688 C 186.628906 202.480469 186.28125 201.847656 186.28125 201.179688 C 186.28125 200.875 186.351562 200.5625 186.507812 200.269531 C 186.558594 200.167969 186.617188 200.125 186.683594 200.125 C 186.933594 200.125 187.246094 200.804688 187.425781 201.484375 C 187.523438 201.84375 187.582031 202.203125 187.574219 202.460938 C 187.550781 202.695312 187.5 202.84375 187.371094 202.84375 " fill-opacity="1" fill-rule="nonzero"/><path fill="#72c3e2" d="M 188.214844 203.140625 C 187.90625 203.140625 187.589844 203.066406 187.296875 202.914062 C 187.566406 203.011719 187.816406 203.054688 188.050781 203.054688 C 189.886719 203.054688 190.453125 200.277344 189.140625 199.414062 C 189.816406 199.769531 190.199219 200.457031 190.199219 201.167969 C 190.199219 201.476562 190.125 201.789062 189.972656 202.082031 C 189.617188 202.753906 188.929688 203.140625 188.214844 203.140625 " fill-opacity="1" fill-rule="nonzero"/><path fill="#7dd5f7" d="M 198.113281 186.875 C 198.621094 185.90625 198.25 184.714844 197.28125 184.207031 C 196.3125 183.695312 195.113281 184.070312 194.605469 185.035156 C 194.097656 186.003906 194.46875 187.199219 195.4375 187.703125 C 196.40625 188.210938 197.605469 187.839844 198.113281 186.875 " fill-opacity="1" fill-rule="nonzero"/><path fill="#98def9" d="M 195.5 187.632812 C 195.46875 187.628906 195.429688 187.617188 195.382812 187.59375 C 195.425781 187.617188 195.464844 187.628906 195.5 187.632812 M 195.714844 187.253906 C 195.722656 186.996094 195.664062 186.632812 195.570312 186.273438 C 195.386719 185.597656 195.074219 184.917969 194.824219 184.917969 C 194.761719 184.917969 194.699219 184.960938 194.648438 185.058594 C 194.496094 185.351562 194.421875 185.664062 194.421875 185.96875 C 194.421875 185.664062 194.496094 185.351562 194.648438 185.058594 C 194.996094 184.402344 195.660156 184.019531 196.335938 184.019531 C 196.613281 184.019531 196.894531 184.085938 197.15625 184.222656 C 197.128906 184.222656 197.101562 184.222656 197.074219 184.222656 C 196.050781 184.222656 195.8125 185.074219 195.753906 185.925781 C 195.71875 186.425781 195.75 186.925781 195.714844 187.253906 " fill-opacity="1" fill-rule="nonzero"/><path fill="#98def9" d="M 195.515625 187.632812 C 195.511719 187.632812 195.507812 187.632812 195.5 187.632812 C 195.503906 187.632812 195.507812 187.632812 195.515625 187.632812 C 195.640625 187.632812 195.695312 187.484375 195.714844 187.253906 C 195.710938 187.484375 195.648438 187.632812 195.515625 187.632812 " fill-opacity="1" fill-rule="nonzero"/><path fill="#afe5fa" d="M 195.515625 187.632812 C 195.507812 187.632812 195.503906 187.632812 195.5 187.632812 C 195.464844 187.628906 195.425781 187.617188 195.382812 187.59375 C 194.769531 187.273438 194.421875 186.636719 194.421875 185.96875 C 194.421875 185.664062 194.496094 185.351562 194.648438 185.058594 C 194.699219 184.960938 194.761719 184.917969 194.824219 184.917969 C 195.074219 184.917969 195.386719 185.597656 195.570312 186.273438 C 195.664062 186.632812 195.722656 186.996094 195.714844 187.253906 C 195.695312 187.484375 195.640625 187.632812 195.515625 187.632812 " fill-opacity="1" fill-rule="nonzero"/><path fill="#72c3e2" d="M 196.355469 187.933594 C 196.277344 187.933594 196.199219 187.925781 196.125 187.917969 C 195.910156 187.894531 195.699219 187.832031 195.496094 187.734375 C 195.476562 187.726562 195.457031 187.714844 195.4375 187.703125 C 195.707031 187.804688 195.960938 187.847656 196.191406 187.847656 C 198.027344 187.847656 198.597656 185.070312 197.28125 184.207031 C 197.957031 184.558594 198.339844 185.246094 198.339844 185.957031 C 198.339844 186.269531 198.265625 186.582031 198.113281 186.875 C 197.757812 187.546875 197.070312 187.933594 196.355469 187.933594 " fill-opacity="1" fill-rule="nonzero"/><path fill="#7dd5f7" d="M 213.015625 184.621094 C 213.523438 183.65625 213.152344 182.460938 212.183594 181.953125 C 211.214844 181.445312 210.015625 181.816406 209.507812 182.785156 C 209 183.75 209.371094 184.945312 210.339844 185.453125 C 211.308594 185.960938 212.507812 185.589844 213.015625 184.621094 " fill-opacity="1" fill-rule="nonzero"/><path fill="#98def9" d="M 210.402344 185.378906 C 210.371094 185.378906 210.328125 185.363281 210.285156 185.34375 C 210.328125 185.363281 210.367188 185.375 210.402344 185.378906 M 210.617188 185 C 210.625 184.742188 210.566406 184.382812 210.472656 184.023438 C 210.289062 183.34375 209.976562 182.664062 209.726562 182.664062 C 209.664062 182.664062 209.601562 182.707031 209.550781 182.808594 C 209.398438 183.101562 209.324219 183.410156 209.324219 183.71875 C 209.324219 183.410156 209.398438 183.101562 209.550781 182.808594 C 209.898438 182.148438 210.558594 181.769531 211.234375 181.769531 C 211.515625 181.769531 211.796875 181.832031 212.058594 181.972656 C 212.03125 181.972656 212.003906 181.96875 211.976562 181.96875 C 210.949219 181.96875 210.714844 182.824219 210.65625 183.675781 C 210.621094 184.175781 210.648438 184.671875 210.617188 185 " fill-opacity="1" fill-rule="nonzero"/><path fill="#98def9" d="M 210.417969 185.378906 C 210.414062 185.378906 210.410156 185.378906 210.402344 185.378906 C 210.40625 185.378906 210.410156 185.378906 210.414062 185.378906 C 210.542969 185.378906 210.59375 185.234375 210.617188 185 C 210.609375 185.230469 210.550781 185.378906 210.417969 185.378906 " fill-opacity="1" fill-rule="nonzero"/><path fill="#afe5fa" d="M 210.414062 185.378906 C 210.410156 185.378906 210.40625 185.378906 210.402344 185.378906 C 210.367188 185.375 210.328125 185.363281 210.285156 185.34375 C 209.671875 185.019531 209.324219 184.386719 209.324219 183.71875 C 209.324219 183.410156 209.398438 183.101562 209.550781 182.808594 C 209.601562 182.707031 209.664062 182.664062 209.726562 182.664062 C 209.976562 182.664062 210.289062 183.34375 210.472656 184.023438 C 210.566406 184.382812 210.625 184.742188 210.617188 185 C 210.59375 185.234375 210.542969 185.378906 210.414062 185.378906 " fill-opacity="1" fill-rule="nonzero"/><path fill="#72c3e2" d="M 211.257812 185.679688 C 210.949219 185.679688 210.632812 185.605469 210.339844 185.453125 C 210.609375 185.550781 210.859375 185.59375 211.09375 185.59375 C 212.929688 185.59375 213.5 182.816406 212.183594 181.953125 C 212.859375 182.304688 213.242188 182.996094 213.242188 183.707031 C 213.242188 184.015625 213.167969 184.328125 213.015625 184.621094 C 212.660156 185.296875 211.972656 185.679688 211.257812 185.679688 " fill-opacity="1" fill-rule="nonzero"/><path fill="#7dd5f7" d="M 174.242188 187.1875 C 174.75 186.21875 174.378906 185.023438 173.410156 184.515625 C 172.441406 184.007812 171.242188 184.382812 170.734375 185.347656 C 170.226562 186.3125 170.597656 187.511719 171.566406 188.015625 C 172.535156 188.523438 173.734375 188.152344 174.242188 187.1875 " fill-opacity="1" fill-rule="nonzero"/><path fill="#98def9" d="M 171.628906 187.945312 C 171.597656 187.941406 171.558594 187.929688 171.511719 187.90625 C 171.554688 187.929688 171.597656 187.941406 171.628906 187.945312 M 171.84375 187.566406 C 171.851562 187.304688 171.792969 186.945312 171.699219 186.585938 C 171.515625 185.90625 171.203125 185.226562 170.953125 185.226562 C 170.890625 185.226562 170.828125 185.273438 170.777344 185.371094 C 170.625 185.664062 170.550781 185.976562 170.550781 186.28125 C 170.550781 185.976562 170.625 185.664062 170.777344 185.371094 C 171.125 184.714844 171.789062 184.332031 172.460938 184.332031 C 172.742188 184.332031 173.023438 184.398438 173.289062 184.535156 C 173.257812 184.535156 173.230469 184.535156 173.203125 184.535156 C 172.179688 184.535156 171.941406 185.386719 171.882812 186.238281 C 171.847656 186.738281 171.875 187.238281 171.84375 187.566406 " fill-opacity="1" fill-rule="nonzero"/><path fill="#98def9" d="M 171.644531 187.945312 C 171.640625 187.945312 171.636719 187.945312 171.628906 187.945312 C 171.632812 187.945312 171.636719 187.945312 171.640625 187.945312 C 171.769531 187.945312 171.820312 187.796875 171.84375 187.566406 C 171.839844 187.796875 171.777344 187.945312 171.644531 187.945312 " fill-opacity="1" fill-rule="nonzero"/><path fill="#afe5fa" d="M 171.640625 187.945312 C 171.636719 187.945312 171.632812 187.945312 171.628906 187.945312 C 171.597656 187.941406 171.554688 187.929688 171.511719 187.90625 C 170.898438 187.585938 170.550781 186.949219 170.550781 186.28125 C 170.550781 185.976562 170.625 185.664062 170.777344 185.371094 C 170.828125 185.273438 170.890625 185.226562 170.953125 185.226562 C 171.203125 185.226562 171.515625 185.90625 171.699219 186.585938 C 171.792969 186.945312 171.851562 187.304688 171.84375 187.566406 C 171.820312 187.796875 171.769531 187.945312 171.640625 187.945312 " fill-opacity="1" fill-rule="nonzero"/><path fill="#72c3e2" d="M 172.484375 188.242188 C 172.175781 188.242188 171.859375 188.171875 171.566406 188.015625 C 171.835938 188.113281 172.089844 188.15625 172.320312 188.15625 C 174.15625 188.15625 174.726562 185.378906 173.410156 184.515625 C 174.085938 184.871094 174.46875 185.558594 174.46875 186.269531 C 174.46875 186.582031 174.394531 186.894531 174.242188 187.1875 C 174.09375 187.472656 173.882812 187.703125 173.636719 187.878906 C 173.445312 188.011719 173.234375 188.113281 173.011719 188.171875 C 172.839844 188.21875 172.664062 188.242188 172.484375 188.242188 " fill-opacity="1" fill-rule="nonzero"/><path fill="#7dd5f7" d="M 164.855469 190.359375 C 165.363281 189.390625 164.992188 188.195312 164.023438 187.6875 C 163.054688 187.179688 161.855469 187.554688 161.347656 188.519531 C 160.835938 189.484375 161.210938 190.679688 162.179688 191.1875 C 163.148438 191.695312 164.347656 191.324219 164.855469 190.359375 " fill-opacity="1" fill-rule="nonzero"/><path fill="#98def9" d="M 162.242188 191.117188 C 162.210938 191.113281 162.171875 191.101562 162.125 191.078125 C 162.167969 191.101562 162.207031 191.113281 162.242188 191.117188 M 162.457031 190.738281 C 162.464844 190.476562 162.40625 190.117188 162.3125 189.757812 C 162.128906 189.078125 161.816406 188.398438 161.566406 188.398438 C 161.5 188.398438 161.441406 188.441406 161.390625 188.542969 C 161.238281 188.835938 161.164062 189.148438 161.164062 189.453125 C 161.164062 189.148438 161.238281 188.835938 161.390625 188.542969 C 161.738281 187.882812 162.398438 187.503906 163.078125 187.503906 C 163.355469 187.503906 163.636719 187.570312 163.898438 187.707031 C 163.871094 187.707031 163.84375 187.707031 163.816406 187.707031 C 162.789062 187.707031 162.550781 188.558594 162.496094 189.410156 C 162.460938 189.910156 162.488281 190.410156 162.457031 190.738281 " fill-opacity="1" fill-rule="nonzero"/><path fill="#98def9" d="M 162.257812 191.117188 C 162.253906 191.117188 162.25 191.117188 162.242188 191.117188 C 162.246094 191.117188 162.25 191.117188 162.253906 191.117188 C 162.382812 191.117188 162.433594 190.96875 162.457031 190.738281 C 162.449219 190.964844 162.390625 191.117188 162.257812 191.117188 " fill-opacity="1" fill-rule="nonzero"/><path fill="#afe5fa" d="M 162.253906 191.117188 C 162.25 191.117188 162.246094 191.117188 162.242188 191.117188 C 162.207031 191.113281 162.167969 191.101562 162.125 191.078125 C 161.511719 190.753906 161.164062 190.121094 161.164062 189.453125 C 161.164062 189.148438 161.238281 188.835938 161.390625 188.542969 C 161.441406 188.441406 161.5 188.398438 161.566406 188.398438 C 161.816406 188.398438 162.128906 189.078125 162.3125 189.757812 C 162.40625 190.117188 162.464844 190.476562 162.457031 190.738281 C 162.433594 190.96875 162.382812 191.117188 162.253906 191.117188 " fill-opacity="1" fill-rule="nonzero"/><path fill="#72c3e2" d="M 163.097656 191.417969 C 162.789062 191.417969 162.472656 191.34375 162.179688 191.1875 C 162.449219 191.285156 162.699219 191.332031 162.933594 191.332031 C 164.769531 191.328125 165.339844 188.550781 164.023438 187.6875 C 164.699219 188.042969 165.082031 188.730469 165.082031 189.441406 C 165.082031 189.753906 165.007812 190.066406 164.855469 190.359375 C 164.5 191.03125 163.8125 191.417969 163.097656 191.417969 " fill-opacity="1" fill-rule="nonzero"/></svg>