<svg xmlns="http://www.w3.org/2000/svg" xmlns:xlink="http://www.w3.org/1999/xlink" width="500" zoomAndPan="magnify" viewBox="0 0 375 374.999991" height="500" preserveAspectRatio="xMidYMid meet" version="1.0"><defs><clipPath id="3dbbcf18ae"><path d="M 200 144.132812 L 255.21875 144.132812 L 255.21875 203 L 200 203 Z M 200 144.132812 " clip-rule="nonzero"/></clipPath><clipPath id="e0d17c336e"><path d="M 142 144.132812 L 197 144.132812 L 197 203 L 142 203 Z M 142 144.132812 " clip-rule="nonzero"/></clipPath><clipPath id="95f19d5269"><path d="M 169 152 L 228 152 L 228 213.882812 L 169 213.882812 Z M 169 152 " clip-rule="nonzero"/></clipPath></defs><g clip-path="url(#3dbbcf18ae)"><path fill="#287777" d="M 255.171875 194.65625 C 254.984375 189.570312 252.175781 184.957031 247.5625 181.546875 C 245.429688 179.976562 242.914062 178.664062 240.089844 177.679688 C 244.21875 174.203125 246.847656 168.984375 246.847656 163.140625 C 246.847656 152.671875 238.40625 144.183594 227.992188 144.183594 C 217.582031 144.183594 209.140625 152.671875 209.140625 163.140625 C 209.140625 168.984375 211.765625 174.203125 215.894531 177.679688 C 213.074219 178.664062 210.558594 179.976562 208.429688 181.546875 C 203.816406 184.953125 201.007812 189.570312 200.816406 194.65625 C 200.746094 196.441406 200.941406 197.945312 201.355469 199.226562 C 208.40625 200.980469 217.746094 202.046875 227.992188 202.046875 C 238.265625 202.046875 247.625 200.972656 254.683594 199.214844 C 255.0625 197.933594 255.238281 196.433594 255.171875 194.65625 " fill-opacity="1" fill-rule="nonzero"/></g><g clip-path="url(#e0d17c336e)"><path fill="#287777" d="M 196.40625 194.65625 C 196.21875 189.570312 193.410156 184.957031 188.792969 181.546875 C 186.664062 179.976562 184.148438 178.664062 181.324219 177.679688 C 185.453125 174.203125 188.082031 168.984375 188.082031 163.140625 C 188.082031 152.671875 179.640625 144.183594 169.226562 144.183594 C 158.816406 144.183594 150.375 152.671875 150.375 163.140625 C 150.375 168.984375 153 174.203125 157.128906 177.679688 C 154.308594 178.664062 151.792969 179.976562 149.664062 181.546875 C 145.050781 184.953125 142.242188 189.570312 142.050781 194.65625 C 141.980469 196.441406 142.175781 197.945312 142.589844 199.226562 C 149.640625 200.980469 158.980469 202.046875 169.226562 202.046875 C 179.5 202.046875 188.859375 200.972656 195.917969 199.214844 C 196.296875 197.933594 196.472656 196.433594 196.40625 194.65625 " fill-opacity="1" fill-rule="nonzero"/></g><g clip-path="url(#95f19d5269)"><path fill="#40bfbc" d="M 227.503906 206.011719 C 227.304688 200.605469 224.316406 195.695312 219.410156 192.074219 C 217.144531 190.402344 214.472656 189.007812 211.472656 187.960938 C 215.859375 184.265625 218.652344 178.71875 218.652344 172.507812 C 218.652344 161.378906 209.679688 152.355469 198.613281 152.355469 C 187.539062 152.355469 178.566406 161.378906 178.566406 172.507812 C 178.566406 178.71875 181.363281 184.265625 185.75 187.964844 C 182.75 189.007812 180.078125 190.402344 177.8125 192.074219 C 172.910156 195.695312 169.925781 200.605469 169.71875 206.011719 C 169.648438 207.910156 169.855469 209.507812 170.292969 210.867188 C 177.792969 212.730469 187.71875 213.863281 198.613281 213.863281 C 209.53125 213.863281 219.480469 212.722656 226.984375 210.855469 C 227.386719 209.492188 227.574219 207.898438 227.503906 206.011719 " fill-opacity="1" fill-rule="nonzero"/></g></svg>